<?xml version="1.0" encoding="UTF-8" standalone="no"?>
<!DOCTYPE svg PUBLIC "-//W3C//DTD SVG 1.1//EN"
 "http://www.w3.org/Graphics/SVG/1.1/DTD/svg11.dtd">
<!-- Generated by graphviz version 2.38.0 (20140413.2041)
 -->
<!-- Title: G Pages: 1 -->
<svg width="1339pt" height="1420pt"
 viewBox="0.00 0.00 1339.20 1420.20" xmlns="http://www.w3.org/2000/svg" xmlns:xlink="http://www.w3.org/1999/xlink">
<g id="graph0" class="graph" transform="scale(1 1) rotate(0) translate(21.6 1398.6)">
<title>G</title>
<polygon fill="#000000" stroke="none" points="-21.6,21.6 -21.6,-1398.6 1317.6,-1398.6 1317.6,21.6 -21.6,21.6"/>
<!-- ../assets/images/Vector.svg -->
<g id="node1" class="node"><title>../assets/images/Vector.svg</title>
<path fill="none" stroke="#cfffac" d="M1088.5,-272C1088.5,-272 940.5,-272 940.5,-272 937,-272 933.5,-268.5 933.5,-265 933.5,-265 933.5,-258 933.5,-258 933.5,-254.5 937,-251 940.5,-251 940.5,-251 1088.5,-251 1088.5,-251 1092,-251 1095.5,-254.5 1095.5,-258 1095.5,-258 1095.5,-265 1095.5,-265 1095.5,-268.5 1092,-272 1088.5,-272"/>
<text text-anchor="middle" x="1014.5" y="-258.4" font-family="Noto Sans JP" font-size="12.00" fill="#cfffac">../assets/images/Vector.svg</text>
</g>
<!-- ../assets/images/eye&#45;slash.svg -->
<g id="node2" class="node"><title>../assets/images/eye&#45;slash.svg</title>
<path fill="none" stroke="#cfffac" d="M1096,-233C1096,-233 933,-233 933,-233 929.5,-233 926,-229.5 926,-226 926,-226 926,-219 926,-219 926,-215.5 929.5,-212 933,-212 933,-212 1096,-212 1096,-212 1099.5,-212 1103,-215.5 1103,-219 1103,-219 1103,-226 1103,-226 1103,-229.5 1099.5,-233 1096,-233"/>
<text text-anchor="middle" x="1014.5" y="-219.4" font-family="Noto Sans JP" font-size="12.00" fill="#cfffac">../assets/images/eye&#45;slash.svg</text>
</g>
<!-- ../assets/images/eye.svg -->
<g id="node3" class="node"><title>../assets/images/eye.svg</title>
<path fill="none" stroke="#cfffac" d="M1080.5,-194C1080.5,-194 948.5,-194 948.5,-194 945,-194 941.5,-190.5 941.5,-187 941.5,-187 941.5,-180 941.5,-180 941.5,-176.5 945,-173 948.5,-173 948.5,-173 1080.5,-173 1080.5,-173 1084,-173 1087.5,-176.5 1087.5,-180 1087.5,-180 1087.5,-187 1087.5,-187 1087.5,-190.5 1084,-194 1080.5,-194"/>
<text text-anchor="middle" x="1014.5" y="-180.4" font-family="Noto Sans JP" font-size="12.00" fill="#cfffac">../assets/images/eye.svg</text>
</g>
<!-- ../assets/images/index.ts -->
<g id="node4" class="node"><title>../assets/images/index.ts</title>
<path fill="none" stroke="#c6c5fe" d="M871.5,-213C871.5,-213 737.5,-213 737.5,-213 734,-213 730.5,-209.5 730.5,-206 730.5,-206 730.5,-199 730.5,-199 730.5,-195.5 734,-192 737.5,-192 737.5,-192 871.5,-192 871.5,-192 875,-192 878.5,-195.5 878.5,-199 878.5,-199 878.5,-206 878.5,-206 878.5,-209.5 875,-213 871.5,-213"/>
<text text-anchor="middle" x="804.5" y="-199.4" font-family="Noto Sans JP" font-size="12.00" fill="#c6c5fe">../assets/images/index.ts</text>
</g>
<!-- ../assets/images/index.ts&#45;&gt;../assets/images/Vector.svg -->
<g id="edge1" class="edge"><title>../assets/images/index.ts&#45;&gt;../assets/images/Vector.svg</title>
<path fill="none" stroke="#757575" d="M862.974,-213.092C872.145,-215.445 881.429,-218.233 890,-221.5 907.103,-228.019 908.908,-234.951 926,-241.5 932.453,-243.972 939.295,-246.188 946.199,-248.162"/>
<polygon fill="#757575" stroke="#757575" points="945.754,-251.667 956.319,-250.884 947.571,-244.907 945.754,-251.667"/>
</g>
<!-- ../assets/images/index.ts&#45;&gt;../assets/images/eye&#45;slash.svg -->
<g id="edge2" class="edge"><title>../assets/images/index.ts&#45;&gt;../assets/images/eye&#45;slash.svg</title>
<path fill="none" stroke="#757575" d="M878.541,-209.523C890.64,-210.687 903.355,-211.909 915.944,-213.12"/>
<polygon fill="#757575" stroke="#757575" points="915.71,-216.613 925.999,-214.086 916.38,-209.645 915.71,-216.613"/>
</g>
<!-- ../assets/images/index.ts&#45;&gt;../assets/images/eye.svg -->
<g id="edge3" class="edge"><title>../assets/images/index.ts&#45;&gt;../assets/images/eye.svg</title>
<path fill="none" stroke="#757575" d="M878.541,-195.828C895.567,-194.273 913.811,-192.606 931.208,-191.017"/>
<polygon fill="#757575" stroke="#757575" points="931.696,-194.487 941.337,-190.092 931.06,-187.516 931.696,-194.487"/>
</g>
<!-- ../assets/images/logo.svg -->
<g id="node5" class="node"><title>../assets/images/logo.svg</title>
<path fill="none" stroke="#cfffac" d="M1083.5,-155C1083.5,-155 945.5,-155 945.5,-155 942,-155 938.5,-151.5 938.5,-148 938.5,-148 938.5,-141 938.5,-141 938.5,-137.5 942,-134 945.5,-134 945.5,-134 1083.5,-134 1083.5,-134 1087,-134 1090.5,-137.5 1090.5,-141 1090.5,-141 1090.5,-148 1090.5,-148 1090.5,-151.5 1087,-155 1083.5,-155"/>
<text text-anchor="middle" x="1014.5" y="-141.4" font-family="Noto Sans JP" font-size="12.00" fill="#cfffac">../assets/images/logo.svg</text>
</g>
<!-- ../assets/images/index.ts&#45;&gt;../assets/images/logo.svg -->
<g id="edge4" class="edge"><title>../assets/images/index.ts&#45;&gt;../assets/images/logo.svg</title>
<path fill="none" stroke="#757575" d="M835.46,-191.887C859.692,-183.526 894.792,-171.916 926,-163.5 934.091,-161.318 942.654,-159.213 951.132,-157.248"/>
<polygon fill="#757575" stroke="#757575" points="952.031,-160.633 961.011,-155.011 950.485,-153.806 952.031,-160.633"/>
</g>
<!-- components/burger.tsx -->
<g id="node6" class="node"><title>components/burger.tsx</title>
<path fill="none" stroke="#c6c5fe" d="M665,-562C665,-562 539,-562 539,-562 535.5,-562 532,-558.5 532,-555 532,-555 532,-548 532,-548 532,-544.5 535.5,-541 539,-541 539,-541 665,-541 665,-541 668.5,-541 672,-544.5 672,-548 672,-548 672,-555 672,-555 672,-558.5 668.5,-562 665,-562"/>
<text text-anchor="middle" x="602" y="-548.4" font-family="Noto Sans JP" font-size="12.00" fill="#c6c5fe">components/burger.tsx</text>
</g>
<!-- styles/burger.tsx -->
<g id="node7" class="node"><title>styles/burger.tsx</title>
<path fill="none" stroke="#cfffac" d="M849.5,-562C849.5,-562 759.5,-562 759.5,-562 756,-562 752.5,-558.5 752.5,-555 752.5,-555 752.5,-548 752.5,-548 752.5,-544.5 756,-541 759.5,-541 759.5,-541 849.5,-541 849.5,-541 853,-541 856.5,-544.5 856.5,-548 856.5,-548 856.5,-555 856.5,-555 856.5,-558.5 853,-562 849.5,-562"/>
<text text-anchor="middle" x="804.5" y="-548.4" font-family="Noto Sans JP" font-size="12.00" fill="#cfffac">styles/burger.tsx</text>
</g>
<!-- components/burger.tsx&#45;&gt;styles/burger.tsx -->
<g id="edge5" class="edge"><title>components/burger.tsx&#45;&gt;styles/burger.tsx</title>
<path fill="none" stroke="#757575" d="M672.001,-551.5C694.786,-551.5 719.963,-551.5 742.137,-551.5"/>
<polygon fill="#757575" stroke="#757575" points="742.425,-555 752.425,-551.5 742.425,-548 742.425,-555"/>
</g>
<!-- components/layout.tsx -->
<g id="node8" class="node"><title>components/layout.tsx</title>
<path fill="none" stroke="#c6c5fe" d="M455,-485C455,-485 332,-485 332,-485 328.5,-485 325,-481.5 325,-478 325,-478 325,-471 325,-471 325,-467.5 328.5,-464 332,-464 332,-464 455,-464 455,-464 458.5,-464 462,-467.5 462,-471 462,-471 462,-478 462,-478 462,-481.5 458.5,-485 455,-485"/>
<text text-anchor="middle" x="393.5" y="-471.4" font-family="Noto Sans JP" font-size="12.00" fill="#c6c5fe">components/layout.tsx</text>
</g>
<!-- components/layout.tsx&#45;&gt;components/burger.tsx -->
<g id="edge6" class="edge"><title>components/layout.tsx&#45;&gt;components/burger.tsx</title>
<path fill="none" stroke="#757575" d="M415.075,-485.149C439.731,-497.584 482.543,-518.148 521,-531.5 528.053,-533.949 535.552,-536.23 543.023,-538.31"/>
<polygon fill="#757575" stroke="#757575" points="542.223,-541.719 552.788,-540.925 544.034,-534.957 542.223,-541.719"/>
</g>
<!-- components/menu.tsx -->
<g id="node9" class="node"><title>components/menu.tsx</title>
<path fill="none" stroke="#c6c5fe" d="M662,-601C662,-601 542,-601 542,-601 538.5,-601 535,-597.5 535,-594 535,-594 535,-587 535,-587 535,-583.5 538.5,-580 542,-580 542,-580 662,-580 662,-580 665.5,-580 669,-583.5 669,-587 669,-587 669,-594 669,-594 669,-597.5 665.5,-601 662,-601"/>
<text text-anchor="middle" x="602" y="-587.4" font-family="Noto Sans JP" font-size="12.00" fill="#c6c5fe">components/menu.tsx</text>
</g>
<!-- components/layout.tsx&#45;&gt;components/menu.tsx -->
<g id="edge7" class="edge"><title>components/layout.tsx&#45;&gt;components/menu.tsx</title>
<path fill="none" stroke="#757575" d="M405.316,-485.209C425.978,-505.058 473.268,-547.615 521,-570.5 525.922,-572.86 531.152,-574.96 536.489,-576.826"/>
<polygon fill="#757575" stroke="#757575" points="535.578,-580.21 546.169,-579.937 537.72,-573.545 535.578,-580.21"/>
</g>
<!-- interfaces/PageTransaction.ts -->
<g id="node10" class="node"><title>interfaces/PageTransaction.ts</title>
<path fill="none" stroke="#cfffac" d="M883,-484C883,-484 726,-484 726,-484 722.5,-484 719,-480.5 719,-477 719,-477 719,-470 719,-470 719,-466.5 722.5,-463 726,-463 726,-463 883,-463 883,-463 886.5,-463 890,-466.5 890,-470 890,-470 890,-477 890,-477 890,-480.5 886.5,-484 883,-484"/>
<text text-anchor="middle" x="804.5" y="-470.4" font-family="Noto Sans JP" font-size="12.00" fill="#cfffac">interfaces/PageTransaction.ts</text>
</g>
<!-- components/layout.tsx&#45;&gt;interfaces/PageTransaction.ts -->
<g id="edge8" class="edge"><title>components/layout.tsx&#45;&gt;interfaces/PageTransaction.ts</title>
<path fill="none" stroke="#757575" d="M445.96,-463.986C468.831,-459.824 496.15,-455.549 521,-453.5 592.757,-447.584 611.243,-447.586 683,-453.5 702.169,-455.08 722.881,-458.051 741.636,-461.229"/>
<polygon fill="#757575" stroke="#757575" points="741.086,-464.686 751.538,-462.955 742.288,-457.79 741.086,-464.686"/>
</g>
<!-- styles/svg.tsx -->
<g id="node11" class="node"><title>styles/svg.tsx</title>
<path fill="none" stroke="#c6c5fe" d="M638.5,-291C638.5,-291 565.5,-291 565.5,-291 562,-291 558.5,-287.5 558.5,-284 558.5,-284 558.5,-277 558.5,-277 558.5,-273.5 562,-270 565.5,-270 565.5,-270 638.5,-270 638.5,-270 642,-270 645.5,-273.5 645.5,-277 645.5,-277 645.5,-284 645.5,-284 645.5,-287.5 642,-291 638.5,-291"/>
<text text-anchor="middle" x="602" y="-277.4" font-family="Noto Sans JP" font-size="12.00" fill="#c6c5fe">styles/svg.tsx</text>
</g>
<!-- components/layout.tsx&#45;&gt;styles/svg.tsx -->
<g id="edge9" class="edge"><title>components/layout.tsx&#45;&gt;styles/svg.tsx</title>
<path fill="none" stroke="#757575" d="M405.916,-463.845C424.262,-446.298 460.705,-409.652 485,-373.5 505.4,-343.144 492.46,-322.372 521,-299.5 528.937,-293.139 538.653,-288.848 548.542,-285.966"/>
<polygon fill="#757575" stroke="#757575" points="549.558,-289.32 558.431,-283.529 547.884,-282.523 549.558,-289.32"/>
</g>
<!-- util/hooks.tsx -->
<g id="node12" class="node"><title>util/hooks.tsx</title>
<path fill="none" stroke="#cfffac" d="M639,-484C639,-484 565,-484 565,-484 561.5,-484 558,-480.5 558,-477 558,-477 558,-470 558,-470 558,-466.5 561.5,-463 565,-463 565,-463 639,-463 639,-463 642.5,-463 646,-466.5 646,-470 646,-470 646,-477 646,-477 646,-480.5 642.5,-484 639,-484"/>
<text text-anchor="middle" x="602" y="-470.4" font-family="Noto Sans JP" font-size="12.00" fill="#cfffac">util/hooks.tsx</text>
</g>
<!-- components/layout.tsx&#45;&gt;util/hooks.tsx -->
<g id="edge10" class="edge"><title>components/layout.tsx&#45;&gt;util/hooks.tsx</title>
<path fill="none" stroke="#757575" d="M462.116,-474.173C489.945,-474.038 521.711,-473.884 547.833,-473.757"/>
<polygon fill="#757575" stroke="#757575" points="547.932,-477.257 557.915,-473.709 547.898,-470.257 547.932,-477.257"/>
</g>
<!-- util/pageTransitionData.ts -->
<g id="node13" class="node"><title>util/pageTransitionData.ts</title>
<path fill="none" stroke="#c6c5fe" d="M671.5,-523C671.5,-523 532.5,-523 532.5,-523 529,-523 525.5,-519.5 525.5,-516 525.5,-516 525.5,-509 525.5,-509 525.5,-505.5 529,-502 532.5,-502 532.5,-502 671.5,-502 671.5,-502 675,-502 678.5,-505.5 678.5,-509 678.5,-509 678.5,-516 678.5,-516 678.5,-519.5 675,-523 671.5,-523"/>
<text text-anchor="middle" x="602" y="-509.4" font-family="Noto Sans JP" font-size="12.00" fill="#c6c5fe">util/pageTransitionData.ts</text>
</g>
<!-- components/layout.tsx&#45;&gt;util/pageTransitionData.ts -->
<g id="edge11" class="edge"><title>components/layout.tsx&#45;&gt;util/pageTransitionData.ts</title>
<path fill="none" stroke="#757575" d="M451.748,-485.035C477.149,-489.709 507.22,-495.243 533.69,-500.114"/>
<polygon fill="#757575" stroke="#757575" points="533.173,-503.577 543.641,-501.945 534.44,-496.693 533.173,-503.577"/>
</g>
<!-- styles/menu.tsx -->
<g id="node14" class="node"><title>styles/menu.tsx</title>
<path fill="none" stroke="#cfffac" d="M847,-601C847,-601 762,-601 762,-601 758.5,-601 755,-597.5 755,-594 755,-594 755,-587 755,-587 755,-583.5 758.5,-580 762,-580 762,-580 847,-580 847,-580 850.5,-580 854,-583.5 854,-587 854,-587 854,-594 854,-594 854,-597.5 850.5,-601 847,-601"/>
<text text-anchor="middle" x="804.5" y="-587.4" font-family="Noto Sans JP" font-size="12.00" fill="#cfffac">styles/menu.tsx</text>
</g>
<!-- components/menu.tsx&#45;&gt;styles/menu.tsx -->
<g id="edge12" class="edge"><title>components/menu.tsx&#45;&gt;styles/menu.tsx</title>
<path fill="none" stroke="#757575" d="M669.207,-590.5C693.55,-590.5 720.933,-590.5 744.591,-590.5"/>
<polygon fill="#757575" stroke="#757575" points="744.828,-594 754.828,-590.5 744.828,-587 744.828,-594"/>
</g>
<!-- util/auth.tsx -->
<g id="node15" class="node"><title>util/auth.tsx</title>
<path fill="none" stroke="#cfffac" d="M837.5,-697C837.5,-697 771.5,-697 771.5,-697 768,-697 764.5,-693.5 764.5,-690 764.5,-690 764.5,-683 764.5,-683 764.5,-679.5 768,-676 771.5,-676 771.5,-676 837.5,-676 837.5,-676 841,-676 844.5,-679.5 844.5,-683 844.5,-683 844.5,-690 844.5,-690 844.5,-693.5 841,-697 837.5,-697"/>
<text text-anchor="middle" x="804.5" y="-683.4" font-family="Noto Sans JP" font-size="12.00" fill="#cfffac">util/auth.tsx</text>
</g>
<!-- components/menu.tsx&#45;&gt;util/auth.tsx -->
<g id="edge13" class="edge"><title>components/menu.tsx&#45;&gt;util/auth.tsx</title>
<path fill="none" stroke="#757575" d="M643.133,-601.073C656.09,-605.004 670.365,-609.893 683,-615.5 718.227,-631.133 756.094,-654.674 779.785,-670.308"/>
<polygon fill="#757575" stroke="#757575" points="777.875,-673.24 788.136,-675.879 781.76,-667.418 777.875,-673.24"/>
</g>
<!-- styles/svg.tsx&#45;&gt;../assets/images/index.ts -->
<g id="edge91" class="edge"><title>styles/svg.tsx&#45;&gt;../assets/images/index.ts</title>
<path fill="none" stroke="#757575" d="M645.895,-274.565C658.446,-271.592 671.794,-267.144 683,-260.5 703.291,-248.47 698.567,-233.288 719,-221.5 722.022,-219.757 725.19,-218.173 728.454,-216.735"/>
<polygon fill="#757575" stroke="#757575" points="729.823,-219.958 737.86,-213.054 727.272,-213.439 729.823,-219.958"/>
</g>
<!-- util/pageTransitionData.ts&#45;&gt;interfaces/PageTransaction.ts -->
<g id="edge94" class="edge"><title>util/pageTransitionData.ts&#45;&gt;interfaces/PageTransaction.ts</title>
<path fill="none" stroke="#757575" d="M656.994,-501.997C682.397,-497.056 712.876,-491.128 739.439,-485.961"/>
<polygon fill="#757575" stroke="#757575" points="740.262,-489.366 749.41,-484.021 738.925,-482.495 740.262,-489.366"/>
</g>
<!-- components/multiSelection.tsx -->
<g id="node16" class="node"><title>components/multiSelection.tsx</title>
<path fill="none" stroke="#cfffac" d="M476,-912C476,-912 311,-912 311,-912 307.5,-912 304,-908.5 304,-905 304,-905 304,-898 304,-898 304,-894.5 307.5,-891 311,-891 311,-891 476,-891 476,-891 479.5,-891 483,-894.5 483,-898 483,-898 483,-905 483,-905 483,-908.5 479.5,-912 476,-912"/>
<text text-anchor="middle" x="393.5" y="-898.4" font-family="Noto Sans JP" font-size="12.00" fill="#cfffac">components/multiSelection.tsx</text>
</g>
<!-- components/nenchoList.tsx -->
<g id="node17" class="node"><title>components/nenchoList.tsx</title>
<path fill="none" stroke="#c6c5fe" d="M675.5,-213C675.5,-213 528.5,-213 528.5,-213 525,-213 521.5,-209.5 521.5,-206 521.5,-206 521.5,-199 521.5,-199 521.5,-195.5 525,-192 528.5,-192 528.5,-192 675.5,-192 675.5,-192 679,-192 682.5,-195.5 682.5,-199 682.5,-199 682.5,-206 682.5,-206 682.5,-209.5 679,-213 675.5,-213"/>
<text text-anchor="middle" x="602" y="-199.4" font-family="Noto Sans JP" font-size="12.00" fill="#c6c5fe">components/nenchoList.tsx</text>
</g>
<!-- components/nenchoList.tsx&#45;&gt;../assets/images/index.ts -->
<g id="edge14" class="edge"><title>components/nenchoList.tsx&#45;&gt;../assets/images/index.ts</title>
<path fill="none" stroke="#757575" d="M682.531,-202.5C694.831,-202.5 707.566,-202.5 719.951,-202.5"/>
<polygon fill="#757575" stroke="#757575" points="720.255,-206 730.255,-202.5 720.255,-199 720.255,-206"/>
</g>
<!-- components/pageHeader.tsx -->
<g id="node18" class="node"><title>components/pageHeader.tsx</title>
<path fill="none" stroke="#c6c5fe" d="M470,-331C470,-331 317,-331 317,-331 313.5,-331 310,-327.5 310,-324 310,-324 310,-317 310,-317 310,-313.5 313.5,-310 317,-310 317,-310 470,-310 470,-310 473.5,-310 477,-313.5 477,-317 477,-317 477,-324 477,-324 477,-327.5 473.5,-331 470,-331"/>
<text text-anchor="middle" x="393.5" y="-317.4" font-family="Noto Sans JP" font-size="12.00" fill="#c6c5fe">components/pageHeader.tsx</text>
</g>
<!-- styles/index.ts -->
<g id="node19" class="node"><title>styles/index.ts</title>
<path fill="none" stroke="#c6c5fe" d="M641,-252C641,-252 563,-252 563,-252 559.5,-252 556,-248.5 556,-245 556,-245 556,-238 556,-238 556,-234.5 559.5,-231 563,-231 563,-231 641,-231 641,-231 644.5,-231 648,-234.5 648,-238 648,-238 648,-245 648,-245 648,-248.5 644.5,-252 641,-252"/>
<text text-anchor="middle" x="602" y="-238.4" font-family="Noto Sans JP" font-size="12.00" fill="#c6c5fe">styles/index.ts</text>
</g>
<!-- components/pageHeader.tsx&#45;&gt;styles/index.ts -->
<g id="edge15" class="edge"><title>components/pageHeader.tsx&#45;&gt;styles/index.ts</title>
<path fill="none" stroke="#757575" d="M449.866,-309.938C461.909,-306.366 474.252,-301.66 485,-295.5 504.361,-284.404 501.441,-271.243 521,-260.5 528.727,-256.256 537.382,-252.954 546.067,-250.386"/>
<polygon fill="#757575" stroke="#757575" points="547.073,-253.74 555.838,-247.788 545.274,-246.975 547.073,-253.74"/>
</g>
<!-- styles/label.tsx -->
<g id="node20" class="node"><title>styles/label.tsx</title>
<path fill="none" stroke="#cfffac" d="M844.5,-369C844.5,-369 764.5,-369 764.5,-369 761,-369 757.5,-365.5 757.5,-362 757.5,-362 757.5,-355 757.5,-355 757.5,-351.5 761,-348 764.5,-348 764.5,-348 844.5,-348 844.5,-348 848,-348 851.5,-351.5 851.5,-355 851.5,-355 851.5,-362 851.5,-362 851.5,-365.5 848,-369 844.5,-369"/>
<text text-anchor="middle" x="804.5" y="-355.4" font-family="Noto Sans JP" font-size="12.00" fill="#cfffac">styles/label.tsx</text>
</g>
<!-- components/pageHeader.tsx&#45;&gt;styles/label.tsx -->
<g id="edge16" class="edge"><title>components/pageHeader.tsx&#45;&gt;styles/label.tsx</title>
<path fill="none" stroke="#757575" d="M462.01,-331.006C481.052,-333.725 501.809,-336.458 521,-338.5 599.246,-346.826 690.066,-352.558 747.159,-355.686"/>
<polygon fill="#757575" stroke="#757575" points="747.242,-359.195 757.416,-356.24 747.62,-352.206 747.242,-359.195"/>
</g>
<!-- styles/index.ts&#45;&gt;styles/label.tsx -->
<g id="edge89" class="edge"><title>styles/index.ts&#45;&gt;styles/label.tsx</title>
<path fill="none" stroke="#757575" d="M648.007,-245.772C660.205,-248.567 672.835,-253.119 683,-260.5 707.856,-278.549 696.062,-299.068 719,-319.5 730.665,-329.891 745.573,-337.996 759.609,-344.06"/>
<polygon fill="#757575" stroke="#757575" points="758.555,-347.409 769.137,-347.934 761.192,-340.925 758.555,-347.409"/>
</g>
<!-- styles/listCommon.tsx -->
<g id="node24" class="node"><title>styles/listCommon.tsx</title>
<path fill="none" stroke="#cfffac" d="M864,-311C864,-311 745,-311 745,-311 741.5,-311 738,-307.5 738,-304 738,-304 738,-297 738,-297 738,-293.5 741.5,-290 745,-290 745,-290 864,-290 864,-290 867.5,-290 871,-293.5 871,-297 871,-297 871,-304 871,-304 871,-307.5 867.5,-311 864,-311"/>
<text text-anchor="middle" x="804.5" y="-297.4" font-family="Noto Sans JP" font-size="12.00" fill="#cfffac">styles/listCommon.tsx</text>
</g>
<!-- styles/index.ts&#45;&gt;styles/listCommon.tsx -->
<g id="edge90" class="edge"><title>styles/index.ts&#45;&gt;styles/listCommon.tsx</title>
<path fill="none" stroke="#757575" d="M648.029,-251.467C659.485,-254.201 671.74,-257.301 683,-260.5 710.458,-268.302 740.972,-278.446 764.423,-286.567"/>
<polygon fill="#757575" stroke="#757575" points="763.417,-289.922 774.012,-289.91 765.722,-283.313 763.417,-289.922"/>
</g>
<!-- styles/button.tsx -->
<g id="node53" class="node"><title>styles/button.tsx</title>
<path fill="none" stroke="#cfffac" d="M849.5,-98C849.5,-98 759.5,-98 759.5,-98 756,-98 752.5,-94.5 752.5,-91 752.5,-91 752.5,-84 752.5,-84 752.5,-80.5 756,-77 759.5,-77 759.5,-77 849.5,-77 849.5,-77 853,-77 856.5,-80.5 856.5,-84 856.5,-84 856.5,-91 856.5,-91 856.5,-94.5 853,-98 849.5,-98"/>
<text text-anchor="middle" x="804.5" y="-84.4" font-family="Noto Sans JP" font-size="12.00" fill="#cfffac">styles/button.tsx</text>
</g>
<!-- styles/index.ts&#45;&gt;styles/button.tsx -->
<g id="edge87" class="edge"><title>styles/index.ts&#45;&gt;styles/button.tsx</title>
<path fill="none" stroke="#757575" d="M648.025,-235.153C659.961,-232.188 672.451,-227.848 683,-221.5 686.273,-219.531 754.711,-142.547 786.96,-106.174"/>
<polygon fill="#757575" stroke="#757575" points="789.953,-108.074 793.967,-98.2686 784.715,-103.431 789.953,-108.074"/>
</g>
<!-- styles/input.tsx -->
<g id="node58" class="node"><title>styles/input.tsx</title>
<path fill="none" stroke="#cfffac" d="M845.5,-252C845.5,-252 763.5,-252 763.5,-252 760,-252 756.5,-248.5 756.5,-245 756.5,-245 756.5,-238 756.5,-238 756.5,-234.5 760,-231 763.5,-231 763.5,-231 845.5,-231 845.5,-231 849,-231 852.5,-234.5 852.5,-238 852.5,-238 852.5,-245 852.5,-245 852.5,-248.5 849,-252 845.5,-252"/>
<text text-anchor="middle" x="804.5" y="-238.4" font-family="Noto Sans JP" font-size="12.00" fill="#cfffac">styles/input.tsx</text>
</g>
<!-- styles/index.ts&#45;&gt;styles/input.tsx -->
<g id="edge88" class="edge"><title>styles/index.ts&#45;&gt;styles/input.tsx</title>
<path fill="none" stroke="#757575" d="M648.246,-241.5C677.198,-241.5 715.013,-241.5 746.075,-241.5"/>
<polygon fill="#757575" stroke="#757575" points="746.327,-245 756.327,-241.5 746.327,-238 746.327,-245"/>
</g>
<!-- components/passwordInput.tsx -->
<g id="node21" class="node"><title>components/passwordInput.tsx</title>
<path fill="none" stroke="#c6c5fe" d="M478,-175C478,-175 309,-175 309,-175 305.5,-175 302,-171.5 302,-168 302,-168 302,-161 302,-161 302,-157.5 305.5,-154 309,-154 309,-154 478,-154 478,-154 481.5,-154 485,-157.5 485,-161 485,-161 485,-168 485,-168 485,-171.5 481.5,-175 478,-175"/>
<text text-anchor="middle" x="393.5" y="-161.4" font-family="Noto Sans JP" font-size="12.00" fill="#c6c5fe">components/passwordInput.tsx</text>
</g>
<!-- components/passwordInput.tsx&#45;&gt;../assets/images/index.ts -->
<g id="edge17" class="edge"><title>components/passwordInput.tsx&#45;&gt;../assets/images/index.ts</title>
<path fill="none" stroke="#757575" d="M485.019,-167.773C541.97,-170.419 616.933,-174.976 683,-182.5 700.701,-184.516 719.762,-187.363 737.383,-190.278"/>
<polygon fill="#757575" stroke="#757575" points="737.128,-193.784 747.571,-191.996 738.293,-186.882 737.128,-193.784"/>
</g>
<!-- components/passwordInput.tsx&#45;&gt;styles/index.ts -->
<g id="edge18" class="edge"><title>components/passwordInput.tsx&#45;&gt;styles/index.ts</title>
<path fill="none" stroke="#757575" d="M448.24,-175.004C460.738,-178.612 473.687,-183.348 485,-189.5 503.806,-199.727 502.07,-211.504 521,-221.5 528.726,-225.58 537.316,-228.851 545.917,-231.467"/>
<polygon fill="#757575" stroke="#757575" points="545.017,-234.85 555.589,-234.151 546.889,-228.105 545.017,-234.85"/>
</g>
<!-- components/singleSelection.tsx -->
<g id="node22" class="node"><title>components/singleSelection.tsx</title>
<path fill="none" stroke="#cfffac" d="M477.5,-795C477.5,-795 309.5,-795 309.5,-795 306,-795 302.5,-791.5 302.5,-788 302.5,-788 302.5,-781 302.5,-781 302.5,-777.5 306,-774 309.5,-774 309.5,-774 477.5,-774 477.5,-774 481,-774 484.5,-777.5 484.5,-781 484.5,-781 484.5,-788 484.5,-788 484.5,-791.5 481,-795 477.5,-795"/>
<text text-anchor="middle" x="393.5" y="-781.4" font-family="Noto Sans JP" font-size="12.00" fill="#cfffac">components/singleSelection.tsx</text>
</g>
<!-- components/taskList.tsx -->
<g id="node23" class="node"><title>components/taskList.tsx</title>
<path fill="none" stroke="#c6c5fe" d="M666.5,-330C666.5,-330 537.5,-330 537.5,-330 534,-330 530.5,-326.5 530.5,-323 530.5,-323 530.5,-316 530.5,-316 530.5,-312.5 534,-309 537.5,-309 537.5,-309 666.5,-309 666.5,-309 670,-309 673.5,-312.5 673.5,-316 673.5,-316 673.5,-323 673.5,-323 673.5,-326.5 670,-330 666.5,-330"/>
<text text-anchor="middle" x="602" y="-316.4" font-family="Noto Sans JP" font-size="12.00" fill="#c6c5fe">components/taskList.tsx</text>
</g>
<!-- components/taskList.tsx&#45;&gt;../assets/images/index.ts -->
<g id="edge19" class="edge"><title>components/taskList.tsx&#45;&gt;../assets/images/index.ts</title>
<path fill="none" stroke="#757575" d="M667.538,-308.978C673.104,-306.45 678.369,-303.335 683,-299.5 712.406,-275.147 689.306,-245.501 719,-221.5 720.407,-220.363 721.868,-219.29 723.376,-218.28"/>
<polygon fill="#757575" stroke="#757575" points="725.481,-221.109 732.457,-213.135 722.031,-215.019 725.481,-221.109"/>
</g>
<!-- components/taskList.tsx&#45;&gt;styles/listCommon.tsx -->
<g id="edge20" class="edge"><title>components/taskList.tsx&#45;&gt;styles/listCommon.tsx</title>
<path fill="none" stroke="#757575" d="M673.689,-312.801C691.125,-311.149 709.87,-309.373 727.544,-307.698"/>
<polygon fill="#757575" stroke="#757575" points="728.184,-311.153 737.809,-306.725 727.523,-304.184 728.184,-311.153"/>
</g>
<!-- model/employees.ts -->
<g id="node25" class="node"><title>model/employees.ts</title>
<path fill="none" stroke="#c6c5fe" d="M448,-1299C448,-1299 339,-1299 339,-1299 335.5,-1299 332,-1295.5 332,-1292 332,-1292 332,-1285 332,-1285 332,-1281.5 335.5,-1278 339,-1278 339,-1278 448,-1278 448,-1278 451.5,-1278 455,-1281.5 455,-1285 455,-1285 455,-1292 455,-1292 455,-1295.5 451.5,-1299 448,-1299"/>
<text text-anchor="middle" x="393.5" y="-1285.4" font-family="Noto Sans JP" font-size="12.00" fill="#c6c5fe">model/employees.ts</text>
</g>
<!-- model/entity/employees.ts -->
<g id="node26" class="node"><title>model/entity/employees.ts</title>
<path fill="none" stroke="#cfffac" d="M1289,-1276C1289,-1276 1146,-1276 1146,-1276 1142.5,-1276 1139,-1272.5 1139,-1269 1139,-1269 1139,-1262 1139,-1262 1139,-1258.5 1142.5,-1255 1146,-1255 1146,-1255 1289,-1255 1289,-1255 1292.5,-1255 1296,-1258.5 1296,-1262 1296,-1262 1296,-1269 1296,-1269 1296,-1272.5 1292.5,-1276 1289,-1276"/>
<text text-anchor="middle" x="1217.5" y="-1262.4" font-family="Noto Sans JP" font-size="12.00" fill="#cfffac">model/entity/employees.ts</text>
</g>
<!-- model/employees.ts&#45;&gt;model/entity/employees.ts -->
<g id="edge21" class="edge"><title>model/employees.ts&#45;&gt;model/entity/employees.ts</title>
<path fill="none" stroke="#757575" d="M455.277,-1286.8C599.142,-1282.77 960.997,-1272.65 1128.68,-1267.96"/>
<polygon fill="#757575" stroke="#757575" points="1128.81,-1271.46 1138.71,-1267.68 1128.61,-1264.46 1128.81,-1271.46"/>
</g>
<!-- util/api/typeormUtils.ts -->
<g id="node27" class="node"><title>util/api/typeormUtils.ts</title>
<path fill="none" stroke="#c6c5fe" d="M664,-1201C664,-1201 540,-1201 540,-1201 536.5,-1201 533,-1197.5 533,-1194 533,-1194 533,-1187 533,-1187 533,-1183.5 536.5,-1180 540,-1180 540,-1180 664,-1180 664,-1180 667.5,-1180 671,-1183.5 671,-1187 671,-1187 671,-1194 671,-1194 671,-1197.5 667.5,-1201 664,-1201"/>
<text text-anchor="middle" x="602" y="-1187.4" font-family="Noto Sans JP" font-size="12.00" fill="#c6c5fe">util/api/typeormUtils.ts</text>
</g>
<!-- model/employees.ts&#45;&gt;util/api/typeormUtils.ts -->
<g id="edge22" class="edge"><title>model/employees.ts&#45;&gt;util/api/typeormUtils.ts</title>
<path fill="none" stroke="#757575" d="M442.847,-1277.94C456.746,-1274.16 471.728,-1269.36 485,-1263.5 519.785,-1248.15 556.339,-1223.52 578.902,-1207.18"/>
<polygon fill="#757575" stroke="#757575" points="581.123,-1209.89 587.111,-1201.15 576.979,-1204.25 581.123,-1209.89"/>
</g>
<!-- model/getConnection.ts -->
<g id="node31" class="node"><title>model/getConnection.ts</title>
<path fill="none" stroke="#c6c5fe" d="M869,-1201C869,-1201 740,-1201 740,-1201 736.5,-1201 733,-1197.5 733,-1194 733,-1194 733,-1187 733,-1187 733,-1183.5 736.5,-1180 740,-1180 740,-1180 869,-1180 869,-1180 872.5,-1180 876,-1183.5 876,-1187 876,-1187 876,-1194 876,-1194 876,-1197.5 872.5,-1201 869,-1201"/>
<text text-anchor="middle" x="804.5" y="-1187.4" font-family="Noto Sans JP" font-size="12.00" fill="#c6c5fe">model/getConnection.ts</text>
</g>
<!-- util/api/typeormUtils.ts&#45;&gt;model/getConnection.ts -->
<g id="edge93" class="edge"><title>util/api/typeormUtils.ts&#45;&gt;model/getConnection.ts</title>
<path fill="none" stroke="#757575" d="M671.16,-1190.5C687.612,-1190.5 705.354,-1190.5 722.336,-1190.5"/>
<polygon fill="#757575" stroke="#757575" points="722.794,-1194 732.794,-1190.5 722.794,-1187 722.794,-1194"/>
</g>
<!-- model/entity/groups.ts -->
<g id="node28" class="node"><title>model/entity/groups.ts</title>
<path fill="none" stroke="#cfffac" d="M1279,-1085C1279,-1085 1156,-1085 1156,-1085 1152.5,-1085 1149,-1081.5 1149,-1078 1149,-1078 1149,-1071 1149,-1071 1149,-1067.5 1152.5,-1064 1156,-1064 1156,-1064 1279,-1064 1279,-1064 1282.5,-1064 1286,-1067.5 1286,-1071 1286,-1071 1286,-1078 1286,-1078 1286,-1081.5 1282.5,-1085 1279,-1085"/>
<text text-anchor="middle" x="1217.5" y="-1071.4" font-family="Noto Sans JP" font-size="12.00" fill="#cfffac">model/entity/groups.ts</text>
</g>
<!-- model/entity/index.ts -->
<g id="node29" class="node"><title>model/entity/index.ts</title>
<path fill="none" stroke="#c6c5fe" d="M1072,-1201C1072,-1201 957,-1201 957,-1201 953.5,-1201 950,-1197.5 950,-1194 950,-1194 950,-1187 950,-1187 950,-1183.5 953.5,-1180 957,-1180 957,-1180 1072,-1180 1072,-1180 1075.5,-1180 1079,-1183.5 1079,-1187 1079,-1187 1079,-1194 1079,-1194 1079,-1197.5 1075.5,-1201 1072,-1201"/>
<text text-anchor="middle" x="1014.5" y="-1187.4" font-family="Noto Sans JP" font-size="12.00" fill="#c6c5fe">model/entity/index.ts</text>
</g>
<!-- model/entity/index.ts&#45;&gt;model/entity/employees.ts -->
<g id="edge23" class="edge"><title>model/entity/index.ts&#45;&gt;model/entity/employees.ts</title>
<path fill="none" stroke="#757575" d="M1043.87,-1201.09C1079.19,-1214.26 1139.62,-1236.81 1178.8,-1251.43"/>
<polygon fill="#757575" stroke="#757575" points="1177.68,-1254.75 1188.27,-1254.97 1180.13,-1248.19 1177.68,-1254.75"/>
</g>
<!-- model/entity/index.ts&#45;&gt;model/entity/groups.ts -->
<g id="edge24" class="edge"><title>model/entity/index.ts&#45;&gt;model/entity/groups.ts</title>
<path fill="none" stroke="#757575" d="M1034.05,-1179.79C1069.74,-1159.2 1148.09,-1113.98 1189.55,-1090.05"/>
<polygon fill="#757575" stroke="#757575" points="1191.37,-1093.04 1198.29,-1085.01 1187.88,-1086.98 1191.37,-1093.04"/>
</g>
<!-- model/entity/tasks.ts -->
<g id="node30" class="node"><title>model/entity/tasks.ts</title>
<path fill="none" stroke="#cfffac" d="M1274,-1213C1274,-1213 1161,-1213 1161,-1213 1157.5,-1213 1154,-1209.5 1154,-1206 1154,-1206 1154,-1199 1154,-1199 1154,-1195.5 1157.5,-1192 1161,-1192 1161,-1192 1274,-1192 1274,-1192 1277.5,-1192 1281,-1195.5 1281,-1199 1281,-1199 1281,-1206 1281,-1206 1281,-1209.5 1277.5,-1213 1274,-1213"/>
<text text-anchor="middle" x="1217.5" y="-1199.4" font-family="Noto Sans JP" font-size="12.00" fill="#cfffac">model/entity/tasks.ts</text>
</g>
<!-- model/entity/index.ts&#45;&gt;model/entity/tasks.ts -->
<g id="edge25" class="edge"><title>model/entity/index.ts&#45;&gt;model/entity/tasks.ts</title>
<path fill="none" stroke="#757575" d="M1079.1,-1194.3C1099.56,-1195.52 1122.39,-1196.88 1143.47,-1198.14"/>
<polygon fill="#757575" stroke="#757575" points="1143.47,-1201.65 1153.66,-1198.75 1143.89,-1194.66 1143.47,-1201.65"/>
</g>
<!-- model/getConnection.ts&#45;&gt;model/entity/index.ts -->
<g id="edge26" class="edge"><title>model/getConnection.ts&#45;&gt;model/entity/index.ts</title>
<path fill="none" stroke="#757575" d="M876.21,-1190.5C896.755,-1190.5 919.239,-1190.5 939.954,-1190.5"/>
<polygon fill="#757575" stroke="#757575" points="939.966,-1194 949.966,-1190.5 939.966,-1187 939.966,-1194"/>
</g>
<!-- model/groups.ts -->
<g id="node32" class="node"><title>model/groups.ts</title>
<path fill="none" stroke="#c6c5fe" d="M438.5,-951C438.5,-951 348.5,-951 348.5,-951 345,-951 341.5,-947.5 341.5,-944 341.5,-944 341.5,-937 341.5,-937 341.5,-933.5 345,-930 348.5,-930 348.5,-930 438.5,-930 438.5,-930 442,-930 445.5,-933.5 445.5,-937 445.5,-937 445.5,-944 445.5,-944 445.5,-947.5 442,-951 438.5,-951"/>
<text text-anchor="middle" x="393.5" y="-937.4" font-family="Noto Sans JP" font-size="12.00" fill="#c6c5fe">model/groups.ts</text>
</g>
<!-- model/groups.ts&#45;&gt;util/api/typeormUtils.ts -->
<g id="edge28" class="edge"><title>model/groups.ts&#45;&gt;util/api/typeormUtils.ts</title>
<path fill="none" stroke="#757575" d="M399.674,-951.001C415.056,-981.528 463.066,-1071.91 521,-1132.5 536.706,-1148.92 557.578,-1163.88 574.065,-1174.49"/>
<polygon fill="#757575" stroke="#757575" points="572.382,-1177.57 582.712,-1179.92 576.104,-1171.64 572.382,-1177.57"/>
</g>
<!-- model/groups.ts&#45;&gt;model/entity/groups.ts -->
<g id="edge27" class="edge"><title>model/groups.ts&#45;&gt;model/entity/groups.ts</title>
<path fill="none" stroke="#757575" d="M445.609,-948.832C585.868,-971.696 977.266,-1035.5 1141.96,-1062.35"/>
<polygon fill="#757575" stroke="#757575" points="1141.57,-1065.83 1152.01,-1063.99 1142.7,-1058.92 1141.57,-1065.83"/>
</g>
<!-- model/tasks.ts -->
<g id="node33" class="node"><title>model/tasks.ts</title>
<path fill="none" stroke="#c6c5fe" d="M433,-1221C433,-1221 354,-1221 354,-1221 350.5,-1221 347,-1217.5 347,-1214 347,-1214 347,-1207 347,-1207 347,-1203.5 350.5,-1200 354,-1200 354,-1200 433,-1200 433,-1200 436.5,-1200 440,-1203.5 440,-1207 440,-1207 440,-1214 440,-1214 440,-1217.5 436.5,-1221 433,-1221"/>
<text text-anchor="middle" x="393.5" y="-1207.4" font-family="Noto Sans JP" font-size="12.00" fill="#c6c5fe">model/tasks.ts</text>
</g>
<!-- model/tasks.ts&#45;&gt;util/api/typeormUtils.ts -->
<g id="edge30" class="edge"><title>model/tasks.ts&#45;&gt;util/api/typeormUtils.ts</title>
<path fill="none" stroke="#757575" d="M440.073,-1206.09C464.297,-1203.74 494.758,-1200.79 522.643,-1198.09"/>
<polygon fill="#757575" stroke="#757575" points="523.167,-1201.55 532.783,-1197.11 522.492,-1194.59 523.167,-1201.55"/>
</g>
<!-- model/tasks.ts&#45;&gt;model/entity/tasks.ts -->
<g id="edge29" class="edge"><title>model/tasks.ts&#45;&gt;model/entity/tasks.ts</title>
<path fill="none" stroke="#757575" d="M440.104,-1211.39C552.682,-1213.37 852.812,-1217.38 1103,-1209.5 1116.13,-1209.09 1130.1,-1208.41 1143.59,-1207.65"/>
<polygon fill="#757575" stroke="#757575" points="1144.02,-1211.13 1153.79,-1207.04 1143.6,-1204.14 1144.02,-1211.13"/>
</g>
<!-- pages/Developers/createTask.tsx -->
<g id="node34" class="node"><title>pages/Developers/createTask.tsx</title>
<path fill="none" stroke="#c6c5fe" d="M221,-834C221,-834 45,-834 45,-834 41.5,-834 38,-830.5 38,-827 38,-827 38,-820 38,-820 38,-816.5 41.5,-813 45,-813 45,-813 221,-813 221,-813 224.5,-813 228,-816.5 228,-820 228,-820 228,-827 228,-827 228,-830.5 224.5,-834 221,-834"/>
<text text-anchor="middle" x="133" y="-820.4" font-family="Noto Sans JP" font-size="12.00" fill="#c6c5fe">pages/Developers/createTask.tsx</text>
</g>
<!-- pages/Developers/createTask.tsx&#45;&gt;components/layout.tsx -->
<g id="edge31" class="edge"><title>pages/Developers/createTask.tsx&#45;&gt;components/layout.tsx</title>
<path fill="none" stroke="#757575" d="M142.02,-812.672C178.733,-763.106 331.004,-557.525 378.372,-493.574"/>
<polygon fill="#757575" stroke="#757575" points="381.434,-495.32 384.574,-485.201 375.809,-491.154 381.434,-495.32"/>
</g>
<!-- pages/Developers/createTask.tsx&#45;&gt;util/auth.tsx -->
<g id="edge35" class="edge"><title>pages/Developers/createTask.tsx&#45;&gt;util/auth.tsx</title>
<path fill="none" stroke="#757575" d="M183.975,-834.003C252.568,-846.659 379.402,-863.738 485,-842.5 604.867,-818.393 730.415,-737.82 780.707,-702.887"/>
<polygon fill="#757575" stroke="#757575" points="782.761,-705.721 788.934,-697.11 778.739,-699.992 782.761,-705.721"/>
</g>
<!-- pages/Developers/createTask.tsx&#45;&gt;components/multiSelection.tsx -->
<g id="edge32" class="edge"><title>pages/Developers/createTask.tsx&#45;&gt;components/multiSelection.tsx</title>
<path fill="none" stroke="#757575" d="M166.101,-834.006C199.833,-844.957 254.489,-862.448 302,-876.5 315.328,-880.442 329.817,-884.531 343.216,-888.233"/>
<polygon fill="#757575" stroke="#757575" points="342.642,-891.704 353.212,-890.979 344.496,-884.955 342.642,-891.704"/>
</g>
<!-- pages/Developers/createTask.tsx&#45;&gt;components/singleSelection.tsx -->
<g id="edge33" class="edge"><title>pages/Developers/createTask.tsx&#45;&gt;components/singleSelection.tsx</title>
<path fill="none" stroke="#757575" d="M203.613,-812.997C237.231,-807.926 277.742,-801.814 312.613,-796.553"/>
<polygon fill="#757575" stroke="#757575" points="313.396,-799.974 322.762,-795.021 312.352,-793.052 313.396,-799.974"/>
</g>
<!-- util/apiUrl.ts -->
<g id="node35" class="node"><title>util/apiUrl.ts</title>
<path fill="none" stroke="#cfffac" d="M427.5,-834C427.5,-834 359.5,-834 359.5,-834 356,-834 352.5,-830.5 352.5,-827 352.5,-827 352.5,-820 352.5,-820 352.5,-816.5 356,-813 359.5,-813 359.5,-813 427.5,-813 427.5,-813 431,-813 434.5,-816.5 434.5,-820 434.5,-820 434.5,-827 434.5,-827 434.5,-830.5 431,-834 427.5,-834"/>
<text text-anchor="middle" x="393.5" y="-820.4" font-family="Noto Sans JP" font-size="12.00" fill="#cfffac">util/apiUrl.ts</text>
</g>
<!-- pages/Developers/createTask.tsx&#45;&gt;util/apiUrl.ts -->
<g id="edge34" class="edge"><title>pages/Developers/createTask.tsx&#45;&gt;util/apiUrl.ts</title>
<path fill="none" stroke="#757575" d="M228.056,-823.5C266.613,-823.5 309.693,-823.5 342.085,-823.5"/>
<polygon fill="#757575" stroke="#757575" points="342.207,-827 352.207,-823.5 342.207,-820 342.207,-827"/>
</g>
<!-- pages/Developers/index.tsx -->
<g id="node36" class="node"><title>pages/Developers/index.tsx</title>
<path fill="none" stroke="#c6c5fe" d="M676,-717C676,-717 528,-717 528,-717 524.5,-717 521,-713.5 521,-710 521,-710 521,-703 521,-703 521,-699.5 524.5,-696 528,-696 528,-696 676,-696 676,-696 679.5,-696 683,-699.5 683,-703 683,-703 683,-710 683,-710 683,-713.5 679.5,-717 676,-717"/>
<text text-anchor="middle" x="602" y="-703.4" font-family="Noto Sans JP" font-size="12.00" fill="#c6c5fe">pages/Developers/index.tsx</text>
</g>
<!-- pages/Developers/index.tsx&#45;&gt;util/auth.tsx -->
<g id="edge36" class="edge"><title>pages/Developers/index.tsx&#45;&gt;util/auth.tsx</title>
<path fill="none" stroke="#757575" d="M683.107,-698.509C707.104,-696.116 732.707,-693.562 754.105,-691.427"/>
<polygon fill="#757575" stroke="#757575" points="754.643,-694.891 764.246,-690.416 753.948,-687.926 754.643,-694.891"/>
</g>
<!-- pages/_app.tsx -->
<g id="node37" class="node"><title>pages/_app.tsx</title>
<path fill="none" stroke="#c6c5fe" d="M174.5,-1377C174.5,-1377 91.5,-1377 91.5,-1377 88,-1377 84.5,-1373.5 84.5,-1370 84.5,-1370 84.5,-1363 84.5,-1363 84.5,-1359.5 88,-1356 91.5,-1356 91.5,-1356 174.5,-1356 174.5,-1356 178,-1356 181.5,-1359.5 181.5,-1363 181.5,-1363 181.5,-1370 181.5,-1370 181.5,-1373.5 178,-1377 174.5,-1377"/>
<text text-anchor="middle" x="133" y="-1363.4" font-family="Noto Sans JP" font-size="12.00" fill="#c6c5fe">pages/_app.tsx</text>
</g>
<!-- styles/styles.css -->
<g id="node38" class="node"><title>styles/styles.css</title>
<path fill="none" stroke="#cfffac" d="M436,-1377C436,-1377 351,-1377 351,-1377 347.5,-1377 344,-1373.5 344,-1370 344,-1370 344,-1363 344,-1363 344,-1359.5 347.5,-1356 351,-1356 351,-1356 436,-1356 436,-1356 439.5,-1356 443,-1359.5 443,-1363 443,-1363 443,-1370 443,-1370 443,-1373.5 439.5,-1377 436,-1377"/>
<text text-anchor="middle" x="393.5" y="-1363.4" font-family="Noto Sans JP" font-size="12.00" fill="#cfffac">styles/styles.css</text>
</g>
<!-- pages/_app.tsx&#45;&gt;styles/styles.css -->
<g id="edge37" class="edge"><title>pages/_app.tsx&#45;&gt;styles/styles.css</title>
<path fill="none" stroke="#757575" d="M181.714,-1366.5C224.572,-1366.5 287.645,-1366.5 333.625,-1366.5"/>
<polygon fill="#757575" stroke="#757575" points="333.748,-1370 343.748,-1366.5 333.748,-1363 333.748,-1370"/>
</g>
<!-- pages/api/employees/[empId]/index.ts -->
<g id="node39" class="node"><title>pages/api/employees/[empId]/index.ts</title>
<path fill="none" stroke="#c6c5fe" d="M237,-1338C237,-1338 29,-1338 29,-1338 25.5,-1338 22,-1334.5 22,-1331 22,-1331 22,-1324 22,-1324 22,-1320.5 25.5,-1317 29,-1317 29,-1317 237,-1317 237,-1317 240.5,-1317 244,-1320.5 244,-1324 244,-1324 244,-1331 244,-1331 244,-1334.5 240.5,-1338 237,-1338"/>
<text text-anchor="middle" x="133" y="-1324.4" font-family="Noto Sans JP" font-size="12.00" fill="#c6c5fe">pages/api/employees/[empId]/index.ts</text>
</g>
<!-- pages/api/employees/[empId]/index.ts&#45;&gt;model/employees.ts -->
<g id="edge38" class="edge"><title>pages/api/employees/[empId]/index.ts&#45;&gt;model/employees.ts</title>
<path fill="none" stroke="#757575" d="M203.613,-1317C240.246,-1311.47 285.064,-1304.71 321.849,-1299.16"/>
<polygon fill="#757575" stroke="#757575" points="322.632,-1302.58 331.998,-1297.63 321.588,-1295.66 322.632,-1302.58"/>
</g>
<!-- util/api/interface.ts -->
<g id="node40" class="node"><title>util/api/interface.ts</title>
<path fill="none" stroke="#cfffac" d="M653,-1124C653,-1124 551,-1124 551,-1124 547.5,-1124 544,-1120.5 544,-1117 544,-1117 544,-1110 544,-1110 544,-1106.5 547.5,-1103 551,-1103 551,-1103 653,-1103 653,-1103 656.5,-1103 660,-1106.5 660,-1110 660,-1110 660,-1117 660,-1117 660,-1120.5 656.5,-1124 653,-1124"/>
<text text-anchor="middle" x="602" y="-1110.4" font-family="Noto Sans JP" font-size="12.00" fill="#cfffac">util/api/interface.ts</text>
</g>
<!-- pages/api/employees/[empId]/index.ts&#45;&gt;util/api/interface.ts -->
<g id="edge39" class="edge"><title>pages/api/employees/[empId]/index.ts&#45;&gt;util/api/interface.ts</title>
<path fill="none" stroke="#757575" d="M244.26,-1334.87C333.233,-1338.39 449.265,-1336.72 485,-1307.5 533.739,-1267.65 485.227,-1222.3 521,-1170.5 533.183,-1152.86 552.693,-1138.8 569.396,-1129.05"/>
<polygon fill="#757575" stroke="#757575" points="571.284,-1132.01 578.323,-1124.09 567.882,-1125.89 571.284,-1132.01"/>
</g>
<!-- util/api/responder.ts -->
<g id="node41" class="node"><title>util/api/responder.ts</title>
<path fill="none" stroke="#c6c5fe" d="M448.5,-1143C448.5,-1143 338.5,-1143 338.5,-1143 335,-1143 331.5,-1139.5 331.5,-1136 331.5,-1136 331.5,-1129 331.5,-1129 331.5,-1125.5 335,-1122 338.5,-1122 338.5,-1122 448.5,-1122 448.5,-1122 452,-1122 455.5,-1125.5 455.5,-1129 455.5,-1129 455.5,-1136 455.5,-1136 455.5,-1139.5 452,-1143 448.5,-1143"/>
<text text-anchor="middle" x="393.5" y="-1129.4" font-family="Noto Sans JP" font-size="12.00" fill="#c6c5fe">util/api/responder.ts</text>
</g>
<!-- pages/api/employees/[empId]/index.ts&#45;&gt;util/api/responder.ts -->
<g id="edge40" class="edge"><title>pages/api/employees/[empId]/index.ts&#45;&gt;util/api/responder.ts</title>
<path fill="none" stroke="#757575" d="M244.263,-1320.92C252.128,-1317.5 259.504,-1313.1 266,-1307.5 307.212,-1271.98 269.088,-1233.82 302,-1190.5 316.293,-1171.69 338.584,-1157.3 357.466,-1147.55"/>
<polygon fill="#757575" stroke="#757575" points="359.262,-1150.57 366.69,-1143.02 356.172,-1144.29 359.262,-1150.57"/>
</g>
<!-- util/api/responder.ts&#45;&gt;util/api/interface.ts -->
<g id="edge92" class="edge"><title>util/api/responder.ts&#45;&gt;util/api/interface.ts</title>
<path fill="none" stroke="#757575" d="M455.619,-1126.88C480.183,-1124.62 508.587,-1122 533.736,-1119.69"/>
<polygon fill="#757575" stroke="#757575" points="534.289,-1123.15 543.926,-1118.75 533.648,-1116.18 534.289,-1123.15"/>
</g>
<!-- pages/api/employees/[empId]/tasks/[taskId].ts -->
<g id="node42" class="node"><title>pages/api/employees/[empId]/tasks/[taskId].ts</title>
<path fill="none" stroke="#c6c5fe" d="M259,-1260C259,-1260 7,-1260 7,-1260 3.5,-1260 0,-1256.5 0,-1253 0,-1253 0,-1246 0,-1246 0,-1242.5 3.5,-1239 7,-1239 7,-1239 259,-1239 259,-1239 262.5,-1239 266,-1242.5 266,-1246 266,-1246 266,-1253 266,-1253 266,-1256.5 262.5,-1260 259,-1260"/>
<text text-anchor="middle" x="133" y="-1246.4" font-family="Noto Sans JP" font-size="12.00" fill="#c6c5fe">pages/api/employees/[empId]/tasks/[taskId].ts</text>
</g>
<!-- pages/api/employees/[empId]/tasks/[taskId].ts&#45;&gt;model/employees.ts -->
<g id="edge41" class="edge"><title>pages/api/employees/[empId]/tasks/[taskId].ts&#45;&gt;model/employees.ts</title>
<path fill="none" stroke="#757575" d="M208.375,-1260.02C227.185,-1262.73 247.342,-1265.68 266,-1268.5 284.086,-1271.23 303.612,-1274.27 321.784,-1277.14"/>
<polygon fill="#757575" stroke="#757575" points="321.298,-1280.61 331.722,-1278.72 322.393,-1273.7 321.298,-1280.61"/>
</g>
<!-- pages/api/employees/[empId]/tasks/[taskId].ts&#45;&gt;model/tasks.ts -->
<g id="edge42" class="edge"><title>pages/api/employees/[empId]/tasks/[taskId].ts&#45;&gt;model/tasks.ts</title>
<path fill="none" stroke="#757575" d="M203.613,-1239C245.344,-1232.7 297.698,-1224.8 336.697,-1218.92"/>
<polygon fill="#757575" stroke="#757575" points="337.45,-1222.35 346.815,-1217.39 336.405,-1215.42 337.45,-1222.35"/>
</g>
<!-- pages/api/employees/[empId]/tasks/[taskId].ts&#45;&gt;util/api/interface.ts -->
<g id="edge43" class="edge"><title>pages/api/employees/[empId]/tasks/[taskId].ts&#45;&gt;util/api/interface.ts</title>
<path fill="none" stroke="#757575" d="M266.406,-1254.47C350.061,-1255.26 448.941,-1251.11 485,-1229.5 511.348,-1213.71 500.066,-1192.98 521,-1170.5 536.199,-1154.18 556.748,-1139.66 573.213,-1129.36"/>
<polygon fill="#757575" stroke="#757575" points="575.156,-1132.27 581.88,-1124.08 571.518,-1126.29 575.156,-1132.27"/>
</g>
<!-- pages/api/employees/[empId]/tasks/[taskId].ts&#45;&gt;util/api/responder.ts -->
<g id="edge44" class="edge"><title>pages/api/employees/[empId]/tasks/[taskId].ts&#45;&gt;util/api/responder.ts</title>
<path fill="none" stroke="#757575" d="M243.59,-1238.91C251.379,-1236.35 258.936,-1233.25 266,-1229.5 286.837,-1218.44 283.923,-1205.65 302,-1190.5 321.33,-1174.3 345.477,-1159.03 363.965,-1148.24"/>
<polygon fill="#757575" stroke="#757575" points="365.872,-1151.18 372.801,-1143.16 362.386,-1145.11 365.872,-1151.18"/>
</g>
<!-- pages/api/employees/[empId]/tasks/index.ts -->
<g id="node43" class="node"><title>pages/api/employees/[empId]/tasks/index.ts</title>
<path fill="none" stroke="#c6c5fe" d="M252.5,-1221C252.5,-1221 13.5,-1221 13.5,-1221 10,-1221 6.5,-1217.5 6.5,-1214 6.5,-1214 6.5,-1207 6.5,-1207 6.5,-1203.5 10,-1200 13.5,-1200 13.5,-1200 252.5,-1200 252.5,-1200 256,-1200 259.5,-1203.5 259.5,-1207 259.5,-1207 259.5,-1214 259.5,-1214 259.5,-1217.5 256,-1221 252.5,-1221"/>
<text text-anchor="middle" x="133" y="-1207.4" font-family="Noto Sans JP" font-size="12.00" fill="#c6c5fe">pages/api/employees/[empId]/tasks/index.ts</text>
</g>
<!-- pages/api/employees/[empId]/tasks/index.ts&#45;&gt;model/employees.ts -->
<g id="edge45" class="edge"><title>pages/api/employees/[empId]/tasks/index.ts&#45;&gt;model/employees.ts</title>
<path fill="none" stroke="#757575" d="M230.602,-1221.05C242.638,-1223.34 254.684,-1226.13 266,-1229.5 301.831,-1240.18 340.422,-1259.42 365.43,-1273.02"/>
<polygon fill="#757575" stroke="#757575" points="363.87,-1276.15 374.316,-1277.93 367.254,-1270.03 363.87,-1276.15"/>
</g>
<!-- pages/api/employees/[empId]/tasks/index.ts&#45;&gt;model/tasks.ts -->
<g id="edge46" class="edge"><title>pages/api/employees/[empId]/tasks/index.ts&#45;&gt;model/tasks.ts</title>
<path fill="none" stroke="#757575" d="M259.842,-1210.5C286.9,-1210.5 314.156,-1210.5 336.865,-1210.5"/>
<polygon fill="#757575" stroke="#757575" points="336.961,-1214 346.961,-1210.5 336.961,-1207 336.961,-1214"/>
</g>
<!-- pages/api/employees/[empId]/tasks/index.ts&#45;&gt;util/api/interface.ts -->
<g id="edge47" class="edge"><title>pages/api/employees/[empId]/tasks/index.ts&#45;&gt;util/api/interface.ts</title>
<path fill="none" stroke="#757575" d="M219.902,-1199.96C291.454,-1190.26 395.71,-1173.96 485,-1151.5 511.317,-1144.88 540.329,-1135.38 562.756,-1127.53"/>
<polygon fill="#757575" stroke="#757575" points="563.991,-1130.8 572.25,-1124.17 561.655,-1124.21 563.991,-1130.8"/>
</g>
<!-- pages/api/employees/[empId]/tasks/index.ts&#45;&gt;util/api/responder.ts -->
<g id="edge48" class="edge"><title>pages/api/employees/[empId]/tasks/index.ts&#45;&gt;util/api/responder.ts</title>
<path fill="none" stroke="#757575" d="M240.853,-1199.96C249.559,-1197.41 258.054,-1194.3 266,-1190.5 285.58,-1181.13 283.012,-1168.02 302,-1157.5 310.255,-1152.93 319.405,-1149.15 328.622,-1146.03"/>
<polygon fill="#757575" stroke="#757575" points="329.724,-1149.35 338.217,-1143.02 327.628,-1142.67 329.724,-1149.35"/>
</g>
<!-- pages/api/employees/index.ts -->
<g id="node44" class="node"><title>pages/api/employees/index.ts</title>
<path fill="none" stroke="#c6c5fe" d="M213,-1182C213,-1182 53,-1182 53,-1182 49.5,-1182 46,-1178.5 46,-1175 46,-1175 46,-1168 46,-1168 46,-1164.5 49.5,-1161 53,-1161 53,-1161 213,-1161 213,-1161 216.5,-1161 220,-1164.5 220,-1168 220,-1168 220,-1175 220,-1175 220,-1178.5 216.5,-1182 213,-1182"/>
<text text-anchor="middle" x="133" y="-1168.4" font-family="Noto Sans JP" font-size="12.00" fill="#c6c5fe">pages/api/employees/index.ts</text>
</g>
<!-- pages/api/employees/index.ts&#45;&gt;model/employees.ts -->
<g id="edge49" class="edge"><title>pages/api/employees/index.ts&#45;&gt;model/employees.ts</title>
<path fill="none" stroke="#757575" d="M220.115,-1175.27C235.987,-1178.33 251.963,-1183.12 266,-1190.5 286.878,-1201.48 283.982,-1214.28 302,-1229.5 321.487,-1245.97 345.815,-1261.59 364.338,-1272.62"/>
<polygon fill="#757575" stroke="#757575" points="362.781,-1275.76 373.178,-1277.8 366.319,-1269.72 362.781,-1275.76"/>
</g>
<!-- pages/api/employees/index.ts&#45;&gt;util/api/interface.ts -->
<g id="edge50" class="edge"><title>pages/api/employees/index.ts&#45;&gt;util/api/interface.ts</title>
<path fill="none" stroke="#757575" d="M220.135,-1167.01C236.005,-1163.83 251.975,-1158.94 266,-1151.5 286.837,-1140.44 280.391,-1121.96 302,-1112.5 376.505,-1079.88 403.667,-1112.15 485,-1112.5 500.695,-1112.57 517.583,-1112.69 533.485,-1112.82"/>
<polygon fill="#757575" stroke="#757575" points="533.739,-1116.32 543.769,-1112.91 533.8,-1109.32 533.739,-1116.32"/>
</g>
<!-- pages/api/employees/index.ts&#45;&gt;util/api/responder.ts -->
<g id="edge51" class="edge"><title>pages/api/employees/index.ts&#45;&gt;util/api/responder.ts</title>
<path fill="none" stroke="#757575" d="M203.613,-1161C239.972,-1155.51 284.395,-1148.81 321.024,-1143.28"/>
<polygon fill="#757575" stroke="#757575" points="321.769,-1146.71 331.135,-1141.76 320.725,-1139.79 321.769,-1146.71"/>
</g>
<!-- pages/api/groups/index.ts -->
<g id="node45" class="node"><title>pages/api/groups/index.ts</title>
<path fill="none" stroke="#c6c5fe" d="M203.5,-990C203.5,-990 62.5,-990 62.5,-990 59,-990 55.5,-986.5 55.5,-983 55.5,-983 55.5,-976 55.5,-976 55.5,-972.5 59,-969 62.5,-969 62.5,-969 203.5,-969 203.5,-969 207,-969 210.5,-972.5 210.5,-976 210.5,-976 210.5,-983 210.5,-983 210.5,-986.5 207,-990 203.5,-990"/>
<text text-anchor="middle" x="133" y="-976.4" font-family="Noto Sans JP" font-size="12.00" fill="#c6c5fe">pages/api/groups/index.ts</text>
</g>
<!-- pages/api/groups/index.ts&#45;&gt;model/groups.ts -->
<g id="edge52" class="edge"><title>pages/api/groups/index.ts&#45;&gt;model/groups.ts</title>
<path fill="none" stroke="#757575" d="M203.613,-968.997C243.422,-962.991 292.898,-955.527 331.227,-949.744"/>
<polygon fill="#757575" stroke="#757575" points="331.854,-953.189 341.22,-948.237 330.81,-946.268 331.854,-953.189"/>
</g>
<!-- pages/api/groups/index.ts&#45;&gt;util/api/interface.ts -->
<g id="edge53" class="edge"><title>pages/api/groups/index.ts&#45;&gt;util/api/interface.ts</title>
<path fill="none" stroke="#757575" d="M210.616,-986.653C283.089,-995.143 394.005,-1012.64 485,-1046.5 519.444,-1059.32 555.565,-1081.84 578.168,-1097.2"/>
<polygon fill="#757575" stroke="#757575" points="576.202,-1100.1 586.419,-1102.9 580.181,-1094.34 576.202,-1100.1"/>
</g>
<!-- pages/api/groups/index.ts&#45;&gt;util/api/responder.ts -->
<g id="edge54" class="edge"><title>pages/api/groups/index.ts&#45;&gt;util/api/responder.ts</title>
<path fill="none" stroke="#757575" d="M151.768,-990.016C196.317,-1016.38 312.974,-1085.43 365.81,-1116.7"/>
<polygon fill="#757575" stroke="#757575" points="364.22,-1119.83 374.608,-1121.91 367.785,-1113.8 364.22,-1119.83"/>
</g>
<!-- pages/api/login.ts -->
<g id="node46" class="node"><title>pages/api/login.ts</title>
<path fill="none" stroke="#c6c5fe" d="M181.5,-1299C181.5,-1299 84.5,-1299 84.5,-1299 81,-1299 77.5,-1295.5 77.5,-1292 77.5,-1292 77.5,-1285 77.5,-1285 77.5,-1281.5 81,-1278 84.5,-1278 84.5,-1278 181.5,-1278 181.5,-1278 185,-1278 188.5,-1281.5 188.5,-1285 188.5,-1285 188.5,-1292 188.5,-1292 188.5,-1295.5 185,-1299 181.5,-1299"/>
<text text-anchor="middle" x="133" y="-1285.4" font-family="Noto Sans JP" font-size="12.00" fill="#c6c5fe">pages/api/login.ts</text>
</g>
<!-- pages/api/login.ts&#45;&gt;model/employees.ts -->
<g id="edge55" class="edge"><title>pages/api/login.ts&#45;&gt;model/employees.ts</title>
<path fill="none" stroke="#757575" d="M188.505,-1288.5C227.232,-1288.5 279.599,-1288.5 321.578,-1288.5"/>
<polygon fill="#757575" stroke="#757575" points="321.737,-1292 331.737,-1288.5 321.737,-1285 321.737,-1292"/>
</g>
<!-- pages/api/tasks/index.ts -->
<g id="node47" class="node"><title>pages/api/tasks/index.ts</title>
<path fill="none" stroke="#c6c5fe" d="M198,-1104C198,-1104 68,-1104 68,-1104 64.5,-1104 61,-1100.5 61,-1097 61,-1097 61,-1090 61,-1090 61,-1086.5 64.5,-1083 68,-1083 68,-1083 198,-1083 198,-1083 201.5,-1083 205,-1086.5 205,-1090 205,-1090 205,-1097 205,-1097 205,-1100.5 201.5,-1104 198,-1104"/>
<text text-anchor="middle" x="133" y="-1090.4" font-family="Noto Sans JP" font-size="12.00" fill="#c6c5fe">pages/api/tasks/index.ts</text>
</g>
<!-- pages/api/tasks/index.ts&#45;&gt;model/tasks.ts -->
<g id="edge56" class="edge"><title>pages/api/tasks/index.ts&#45;&gt;model/tasks.ts</title>
<path fill="none" stroke="#757575" d="M205.263,-1094.87C225.768,-1097.57 247.557,-1102.8 266,-1112.5 286.878,-1123.48 283.982,-1136.28 302,-1151.5 321.487,-1167.97 345.815,-1183.59 364.338,-1194.62"/>
<polygon fill="#757575" stroke="#757575" points="362.781,-1197.76 373.178,-1199.8 366.319,-1191.72 362.781,-1197.76"/>
</g>
<!-- pages/api/tasks/index.ts&#45;&gt;util/api/interface.ts -->
<g id="edge57" class="edge"><title>pages/api/tasks/index.ts&#45;&gt;util/api/interface.ts</title>
<path fill="none" stroke="#757575" d="M169.314,-1082.87C233.093,-1065.27 371.426,-1034.36 485,-1059.5 518.169,-1066.84 553.105,-1084.68 575.86,-1097.86"/>
<polygon fill="#757575" stroke="#757575" points="574.148,-1100.91 584.536,-1103 577.717,-1094.89 574.148,-1100.91"/>
</g>
<!-- pages/api/tasks/index.ts&#45;&gt;util/api/responder.ts -->
<g id="edge58" class="edge"><title>pages/api/tasks/index.ts&#45;&gt;util/api/responder.ts</title>
<path fill="none" stroke="#757575" d="M205.272,-1103.57C224.955,-1106.41 246.312,-1109.53 266,-1112.5 283.994,-1115.22 303.412,-1118.24 321.504,-1121.1"/>
<polygon fill="#757575" stroke="#757575" points="320.977,-1124.56 331.401,-1122.67 322.072,-1117.64 320.977,-1124.56"/>
</g>
<!-- pages/api/token/index.ts -->
<g id="node48" class="node"><title>pages/api/token/index.ts</title>
<path fill="none" stroke="#c6c5fe" d="M199.5,-1143C199.5,-1143 66.5,-1143 66.5,-1143 63,-1143 59.5,-1139.5 59.5,-1136 59.5,-1136 59.5,-1129 59.5,-1129 59.5,-1125.5 63,-1122 66.5,-1122 66.5,-1122 199.5,-1122 199.5,-1122 203,-1122 206.5,-1125.5 206.5,-1129 206.5,-1129 206.5,-1136 206.5,-1136 206.5,-1139.5 203,-1143 199.5,-1143"/>
<text text-anchor="middle" x="133" y="-1129.4" font-family="Noto Sans JP" font-size="12.00" fill="#c6c5fe">pages/api/token/index.ts</text>
</g>
<!-- pages/api/token/index.ts&#45;&gt;model/employees.ts -->
<g id="edge59" class="edge"><title>pages/api/token/index.ts&#45;&gt;model/employees.ts</title>
<path fill="none" stroke="#757575" d="M206.77,-1130.31C227.547,-1132.87 249.109,-1138.91 266,-1151.5 296.609,-1174.32 277.033,-1200.61 302,-1229.5 318.021,-1248.04 341.255,-1263.02 360.169,-1273.24"/>
<polygon fill="#757575" stroke="#757575" points="358.572,-1276.36 369.057,-1277.88 361.808,-1270.15 358.572,-1276.36"/>
</g>
<!-- pages/api/token/index.ts&#45;&gt;util/api/interface.ts -->
<g id="edge60" class="edge"><title>pages/api/token/index.ts&#45;&gt;util/api/interface.ts</title>
<path fill="none" stroke="#757575" d="M206.5,-1129.29C226.495,-1126.36 247.704,-1121.25 266,-1112.5 285.58,-1103.13 281.771,-1087.37 302,-1079.5 377.801,-1050.01 404.492,-1067.94 485,-1079.5 511.962,-1083.37 541.403,-1092.06 563.878,-1099.68"/>
<polygon fill="#757575" stroke="#757575" points="562.772,-1103 573.367,-1102.97 565.069,-1096.39 562.772,-1103"/>
</g>
<!-- pages/api/token/index.ts&#45;&gt;util/api/responder.ts -->
<g id="edge61" class="edge"><title>pages/api/token/index.ts&#45;&gt;util/api/responder.ts</title>
<path fill="none" stroke="#757575" d="M206.695,-1132.5C242.44,-1132.5 285.375,-1132.5 320.963,-1132.5"/>
<polygon fill="#757575" stroke="#757575" points="321.274,-1136 331.274,-1132.5 321.274,-1129 321.274,-1136"/>
</g>
<!-- pages/index.tsx -->
<g id="node49" class="node"><title>pages/index.tsx</title>
<path fill="none" stroke="#c6c5fe" d="M436,-717C436,-717 351,-717 351,-717 347.5,-717 344,-713.5 344,-710 344,-710 344,-703 344,-703 344,-699.5 347.5,-696 351,-696 351,-696 436,-696 436,-696 439.5,-696 443,-699.5 443,-703 443,-703 443,-710 443,-710 443,-713.5 439.5,-717 436,-717"/>
<text text-anchor="middle" x="393.5" y="-703.4" font-family="Noto Sans JP" font-size="12.00" fill="#c6c5fe">pages/index.tsx</text>
</g>
<!-- pages/index.tsx&#45;&gt;pages/Developers/index.tsx -->
<g id="edge62" class="edge"><title>pages/index.tsx&#45;&gt;pages/Developers/index.tsx</title>
<path fill="none" stroke="#757575" d="M443.176,-706.5C463.327,-706.5 487.369,-706.5 510.538,-706.5"/>
<polygon fill="#757575" stroke="#757575" points="510.752,-710 520.752,-706.5 510.752,-703 510.752,-710"/>
</g>
<!-- pages/login.tsx -->
<g id="node50" class="node"><title>pages/login.tsx</title>
<path fill="none" stroke="#c6c5fe" d="M174.5,-175C174.5,-175 91.5,-175 91.5,-175 88,-175 84.5,-171.5 84.5,-168 84.5,-168 84.5,-161 84.5,-161 84.5,-157.5 88,-154 91.5,-154 91.5,-154 174.5,-154 174.5,-154 178,-154 181.5,-157.5 181.5,-161 181.5,-161 181.5,-168 181.5,-168 181.5,-171.5 178,-175 174.5,-175"/>
<text text-anchor="middle" x="133" y="-161.4" font-family="Noto Sans JP" font-size="12.00" fill="#c6c5fe">pages/login.tsx</text>
</g>
<!-- pages/login.tsx&#45;&gt;../assets/images/index.ts -->
<g id="edge63" class="edge"><title>pages/login.tsx&#45;&gt;../assets/images/index.ts</title>
<path fill="none" stroke="#757575" d="M181.659,-157.301C215.217,-152.606 261.244,-146.917 302,-144.5 471.318,-134.457 516.782,-132.722 683,-166.5 710.521,-172.093 740.807,-181.154 764.131,-188.786"/>
<polygon fill="#757575" stroke="#757575" points="763.079,-192.124 773.673,-191.955 765.286,-185.481 763.079,-192.124"/>
</g>
<!-- pages/login.tsx&#45;&gt;util/auth.tsx -->
<g id="edge66" class="edge"><title>pages/login.tsx&#45;&gt;util/auth.tsx</title>
<path fill="none" stroke="#757575" d="M168.706,-175.067C199.495,-186.352 243.042,-207.382 266,-241.5 329.162,-335.365 236.929,-400.949 302,-493.5 365.35,-583.603 418.575,-568.993 521,-609.5 600.378,-640.893 697.167,-664.231 754.374,-676.575"/>
<polygon fill="#757575" stroke="#757575" points="753.728,-680.016 764.238,-678.679 755.189,-673.17 753.728,-680.016"/>
</g>
<!-- pages/login.tsx&#45;&gt;styles/index.ts -->
<g id="edge65" class="edge"><title>pages/login.tsx&#45;&gt;styles/index.ts</title>
<path fill="none" stroke="#757575" d="M181.783,-172.378C268.944,-186.75 453.266,-217.141 545.701,-232.382"/>
<polygon fill="#757575" stroke="#757575" points="545.263,-235.857 555.699,-234.031 546.402,-228.95 545.263,-235.857"/>
</g>
<!-- pages/login.tsx&#45;&gt;components/passwordInput.tsx -->
<g id="edge64" class="edge"><title>pages/login.tsx&#45;&gt;components/passwordInput.tsx</title>
<path fill="none" stroke="#757575" d="M181.714,-164.5C212.582,-164.5 253.936,-164.5 291.838,-164.5"/>
<polygon fill="#757575" stroke="#757575" points="291.906,-168 301.906,-164.5 291.906,-161 291.906,-168"/>
</g>
<!-- util/withPreventDefault.ts -->
<g id="node51" class="node"><title>util/withPreventDefault.ts</title>
<path fill="none" stroke="#cfffac" d="M461.5,-21C461.5,-21 325.5,-21 325.5,-21 322,-21 318.5,-17.5 318.5,-14 318.5,-14 318.5,-7 318.5,-7 318.5,-3.5 322,-0 325.5,-0 325.5,-0 461.5,-0 461.5,-0 465,-0 468.5,-3.5 468.5,-7 468.5,-7 468.5,-14 468.5,-14 468.5,-17.5 465,-21 461.5,-21"/>
<text text-anchor="middle" x="393.5" y="-7.4" font-family="Noto Sans JP" font-size="12.00" fill="#cfffac">util/withPreventDefault.ts</text>
</g>
<!-- pages/login.tsx&#45;&gt;util/withPreventDefault.ts -->
<g id="edge67" class="edge"><title>pages/login.tsx&#45;&gt;util/withPreventDefault.ts</title>
<path fill="none" stroke="#757575" d="M144.77,-153.759C170.005,-129.186 235.841,-68.4581 302,-35.5 311.177,-30.9284 321.308,-27.0941 331.369,-23.9107"/>
<polygon fill="#757575" stroke="#757575" points="332.376,-27.2629 340.962,-21.0552 330.379,-20.5539 332.376,-27.2629"/>
</g>
<!-- pages/nencho/index.tsx -->
<g id="node52" class="node"><title>pages/nencho/index.tsx</title>
<path fill="none" stroke="#c6c5fe" d="M197,-321C197,-321 69,-321 69,-321 65.5,-321 62,-317.5 62,-314 62,-314 62,-307 62,-307 62,-303.5 65.5,-300 69,-300 69,-300 197,-300 197,-300 200.5,-300 204,-303.5 204,-307 204,-307 204,-314 204,-314 204,-317.5 200.5,-321 197,-321"/>
<text text-anchor="middle" x="133" y="-307.4" font-family="Noto Sans JP" font-size="12.00" fill="#c6c5fe">pages/nencho/index.tsx</text>
</g>
<!-- pages/nencho/index.tsx&#45;&gt;components/layout.tsx -->
<g id="edge68" class="edge"><title>pages/nencho/index.tsx&#45;&gt;components/layout.tsx</title>
<path fill="none" stroke="#757575" d="M150.564,-321.008C194.504,-348.886 314.267,-424.867 366.998,-458.321"/>
<polygon fill="#757575" stroke="#757575" points="365.421,-461.465 375.74,-463.867 369.171,-455.554 365.421,-461.465"/>
</g>
<!-- pages/nencho/index.tsx&#45;&gt;components/nenchoList.tsx -->
<g id="edge69" class="edge"><title>pages/nencho/index.tsx&#45;&gt;components/nenchoList.tsx</title>
<path fill="none" stroke="#757575" d="M204.037,-306.395C292.145,-300.265 437.659,-286.65 485,-261.5 506.122,-250.279 500.432,-233.706 521,-221.5 523.824,-219.824 526.785,-218.297 529.838,-216.903"/>
<polygon fill="#757575" stroke="#757575" points="531.259,-220.104 539.221,-213.115 528.638,-213.614 531.259,-220.104"/>
</g>
<!-- pages/nencho/index.tsx&#45;&gt;components/pageHeader.tsx -->
<g id="edge70" class="edge"><title>pages/nencho/index.tsx&#45;&gt;components/pageHeader.tsx</title>
<path fill="none" stroke="#757575" d="M204.295,-313.219C233.704,-314.357 268.296,-315.695 299.748,-316.912"/>
<polygon fill="#757575" stroke="#757575" points="299.711,-320.413 309.838,-317.302 299.981,-313.418 299.711,-320.413"/>
</g>
<!-- pages/nencho/index.tsx&#45;&gt;styles/button.tsx -->
<g id="edge71" class="edge"><title>pages/nencho/index.tsx&#45;&gt;styles/button.tsx</title>
<path fill="none" stroke="#757575" d="M204.185,-308.541C226.439,-304.557 249.514,-296.414 266,-280.5 310.986,-237.074 254.689,-185.38 302,-144.5 366.587,-88.6928 623.316,-84.8148 742.332,-86.1485"/>
<polygon fill="#757575" stroke="#757575" points="742.336,-89.6487 752.38,-86.2772 742.425,-82.6493 742.336,-89.6487"/>
</g>
<!-- pages/nencho/insurances.tsx -->
<g id="node54" class="node"><title>pages/nencho/insurances.tsx</title>
<path fill="none" stroke="#c6c5fe" d="M210.5,-272C210.5,-272 55.5,-272 55.5,-272 52,-272 48.5,-268.5 48.5,-265 48.5,-265 48.5,-258 48.5,-258 48.5,-254.5 52,-251 55.5,-251 55.5,-251 210.5,-251 210.5,-251 214,-251 217.5,-254.5 217.5,-258 217.5,-258 217.5,-265 217.5,-265 217.5,-268.5 214,-272 210.5,-272"/>
<text text-anchor="middle" x="133" y="-258.4" font-family="Noto Sans JP" font-size="12.00" fill="#c6c5fe">pages/nencho/insurances.tsx</text>
</g>
<!-- pages/nencho/insurances.tsx&#45;&gt;components/layout.tsx -->
<g id="edge72" class="edge"><title>pages/nencho/insurances.tsx&#45;&gt;components/layout.tsx</title>
<path fill="none" stroke="#757575" d="M217.792,-270.021C234.72,-274.381 251.693,-280.871 266,-290.5 270.108,-293.265 348.281,-408.887 379.643,-455.407"/>
<polygon fill="#757575" stroke="#757575" points="376.765,-457.399 385.255,-463.736 382.57,-453.487 376.765,-457.399"/>
</g>
<!-- pages/nencho/insurances.tsx&#45;&gt;components/pageHeader.tsx -->
<g id="edge73" class="edge"><title>pages/nencho/insurances.tsx&#45;&gt;components/pageHeader.tsx</title>
<path fill="none" stroke="#757575" d="M182.939,-272.049C207.832,-277.466 238.551,-284.23 266,-290.5 290.056,-295.995 316.635,-302.267 339.195,-307.651"/>
<polygon fill="#757575" stroke="#757575" points="338.386,-311.056 348.926,-309.978 340.014,-304.248 338.386,-311.056"/>
</g>
<!-- pages/nencho/insurances.tsx&#45;&gt;styles/button.tsx -->
<g id="edge74" class="edge"><title>pages/nencho/insurances.tsx&#45;&gt;styles/button.tsx</title>
<path fill="none" stroke="#757575" d="M164.234,-250.941C194.154,-239.011 239.246,-216.809 266,-183.5 298.213,-143.394 260.352,-103.692 302,-73.5 370.523,-23.8267 624.01,-57.6376 742.153,-76.8082"/>
<polygon fill="#757575" stroke="#757575" points="741.695,-80.2798 752.13,-78.4447 742.828,-73.3721 741.695,-80.2798"/>
</g>
<!-- styles/insuaranceList.tsx -->
<g id="node55" class="node"><title>styles/insuaranceList.tsx</title>
<path fill="none" stroke="#cfffac" d="M458,-253C458,-253 329,-253 329,-253 325.5,-253 322,-249.5 322,-246 322,-246 322,-239 322,-239 322,-235.5 325.5,-232 329,-232 329,-232 458,-232 458,-232 461.5,-232 465,-235.5 465,-239 465,-239 465,-246 465,-246 465,-249.5 461.5,-253 458,-253"/>
<text text-anchor="middle" x="393.5" y="-239.4" font-family="Noto Sans JP" font-size="12.00" fill="#cfffac">styles/insuaranceList.tsx</text>
</g>
<!-- pages/nencho/insurances.tsx&#45;&gt;styles/insuaranceList.tsx -->
<g id="edge75" class="edge"><title>pages/nencho/insurances.tsx&#45;&gt;styles/insuaranceList.tsx</title>
<path fill="none" stroke="#757575" d="M217.571,-255.357C247.787,-253.137 281.826,-250.635 311.791,-248.432"/>
<polygon fill="#757575" stroke="#757575" points="312.07,-251.921 321.786,-247.698 311.557,-244.94 312.07,-251.921"/>
</g>
<!-- pages/nencho/lifeInsuranceInputs.tsx -->
<g id="node56" class="node"><title>pages/nencho/lifeInsuranceInputs.tsx</title>
<path fill="none" stroke="#c6c5fe" d="M233.5,-446C233.5,-446 32.5,-446 32.5,-446 29,-446 25.5,-442.5 25.5,-439 25.5,-439 25.5,-432 25.5,-432 25.5,-428.5 29,-425 32.5,-425 32.5,-425 233.5,-425 233.5,-425 237,-425 240.5,-428.5 240.5,-432 240.5,-432 240.5,-439 240.5,-439 240.5,-442.5 237,-446 233.5,-446"/>
<text text-anchor="middle" x="133" y="-432.4" font-family="Noto Sans JP" font-size="12.00" fill="#c6c5fe">pages/nencho/lifeInsuranceInputs.tsx</text>
</g>
<!-- pages/nencho/lifeInsuranceInputs.tsx&#45;&gt;components/layout.tsx -->
<g id="edge76" class="edge"><title>pages/nencho/lifeInsuranceInputs.tsx&#45;&gt;components/layout.tsx</title>
<path fill="none" stroke="#757575" d="M208.375,-446.022C227.185,-448.733 247.342,-451.682 266,-454.5 282.477,-456.988 300.148,-459.734 316.902,-462.373"/>
<polygon fill="#757575" stroke="#757575" points="316.773,-465.895 327.197,-463.999 317.865,-458.981 316.773,-465.895"/>
</g>
<!-- pages/nencho/lifeInsuranceInputs.tsx&#45;&gt;util/auth.tsx -->
<g id="edge81" class="edge"><title>pages/nencho/lifeInsuranceInputs.tsx&#45;&gt;util/auth.tsx</title>
<path fill="none" stroke="#757575" d="M240.811,-438.657C250.101,-442.399 258.719,-447.541 266,-454.5 327.818,-513.581 238.512,-586.218 302,-643.5 335.104,-673.368 634.165,-682.942 754.086,-685.597"/>
<polygon fill="#757575" stroke="#757575" points="754.369,-689.104 764.442,-685.819 754.519,-682.106 754.369,-689.104"/>
</g>
<!-- pages/nencho/lifeInsuranceInputs.tsx&#45;&gt;components/pageHeader.tsx -->
<g id="edge77" class="edge"><title>pages/nencho/lifeInsuranceInputs.tsx&#45;&gt;components/pageHeader.tsx</title>
<path fill="none" stroke="#757575" d="M151.039,-424.715C180.715,-406.316 244.247,-368.612 302,-345.5 313.114,-341.052 325.298,-337.099 337.025,-333.723"/>
<polygon fill="#757575" stroke="#757575" points="338.037,-337.074 346.735,-331.024 336.162,-330.33 338.037,-337.074"/>
</g>
<!-- pages/nencho/lifeInsuranceInputs.tsx&#45;&gt;styles/index.ts -->
<g id="edge79" class="edge"><title>pages/nencho/lifeInsuranceInputs.tsx&#45;&gt;styles/index.ts</title>
<path fill="none" stroke="#757575" d="M158.615,-424.911C190.976,-411.34 249.844,-387.857 302,-373.5 381.759,-351.545 419.823,-390.446 485,-339.5 515.4,-315.738 491.197,-285.007 521,-260.5 528.207,-254.574 536.948,-250.435 545.971,-247.558"/>
<polygon fill="#757575" stroke="#757575" points="547.068,-250.887 555.813,-244.905 545.246,-244.128 547.068,-250.887"/>
</g>
<!-- pages/nencho/lifeInsuranceInputs.tsx&#45;&gt;styles/label.tsx -->
<g id="edge80" class="edge"><title>pages/nencho/lifeInsuranceInputs.tsx&#45;&gt;styles/label.tsx</title>
<path fill="none" stroke="#757575" d="M225.338,-424.995C366.011,-408.816 631.528,-378.279 747.23,-364.972"/>
<polygon fill="#757575" stroke="#757575" points="747.755,-368.435 757.289,-363.815 746.955,-361.48 747.755,-368.435"/>
</g>
<!-- pages/nencho/lifeInsuranceInputs.tsx&#45;&gt;components/singleSelection.tsx -->
<g id="edge78" class="edge"><title>pages/nencho/lifeInsuranceInputs.tsx&#45;&gt;components/singleSelection.tsx</title>
<path fill="none" stroke="#757575" d="M240.584,-437.978C250.039,-441.823 258.754,-447.175 266,-454.5 351.446,-540.882 237.196,-622.722 302,-725.5 314.465,-745.27 336.238,-759.772 355.303,-769.451"/>
<polygon fill="#757575" stroke="#757575" points="353.863,-772.642 364.393,-773.817 356.894,-766.333 353.863,-772.642"/>
</g>
<!-- pages/tasks.tsx -->
<g id="node57" class="node"><title>pages/tasks.tsx</title>
<path fill="none" stroke="#c6c5fe" d="M174.5,-485C174.5,-485 91.5,-485 91.5,-485 88,-485 84.5,-481.5 84.5,-478 84.5,-478 84.5,-471 84.5,-471 84.5,-467.5 88,-464 91.5,-464 91.5,-464 174.5,-464 174.5,-464 178,-464 181.5,-467.5 181.5,-471 181.5,-471 181.5,-478 181.5,-478 181.5,-481.5 178,-485 174.5,-485"/>
<text text-anchor="middle" x="133" y="-471.4" font-family="Noto Sans JP" font-size="12.00" fill="#c6c5fe">pages/tasks.tsx</text>
</g>
<!-- pages/tasks.tsx&#45;&gt;components/layout.tsx -->
<g id="edge82" class="edge"><title>pages/tasks.tsx&#45;&gt;components/layout.tsx</title>
<path fill="none" stroke="#757575" d="M181.714,-474.5C218.854,-474.5 271.177,-474.5 314.399,-474.5"/>
<polygon fill="#757575" stroke="#757575" points="314.607,-478 324.607,-474.5 314.607,-471 314.607,-478"/>
</g>
<!-- pages/tasks.tsx&#45;&gt;util/auth.tsx -->
<g id="edge86" class="edge"><title>pages/tasks.tsx&#45;&gt;util/auth.tsx</title>
<path fill="none" stroke="#757575" d="M137.08,-485.046C149.539,-525.511 200.471,-671.283 302,-725.5 376.685,-765.382 599.368,-738.697 683,-725.5 712.838,-720.792 745.352,-709.906 769.078,-700.829"/>
<polygon fill="#757575" stroke="#757575" points="770.638,-703.976 778.674,-697.072 768.087,-697.458 770.638,-703.976"/>
</g>
<!-- pages/tasks.tsx&#45;&gt;components/pageHeader.tsx -->
<g id="edge83" class="edge"><title>pages/tasks.tsx&#45;&gt;components/pageHeader.tsx</title>
<path fill="none" stroke="#757575" d="M181.652,-477.544C208.699,-476.92 241.863,-471.95 266,-454.5 294.672,-433.772 278.778,-410.193 302,-383.5 319.061,-363.889 343.483,-347.358 362.658,-336.157"/>
<polygon fill="#757575" stroke="#757575" points="364.618,-339.069 371.595,-331.096 361.169,-332.978 364.618,-339.069"/>
</g>
<!-- pages/tasks.tsx&#45;&gt;components/taskList.tsx -->
<g id="edge84" class="edge"><title>pages/tasks.tsx&#45;&gt;components/taskList.tsx</title>
<path fill="none" stroke="#757575" d="M181.511,-469.677C206.843,-466.512 238.393,-461.617 266,-454.5 382.806,-424.386 513.231,-363.299 570.849,-334.793"/>
<polygon fill="#757575" stroke="#757575" points="572.711,-337.776 580.102,-330.185 569.59,-331.51 572.711,-337.776"/>
</g>
<!-- pages/tasks.tsx&#45;&gt;util/apiUrl.ts -->
<g id="edge85" class="edge"><title>pages/tasks.tsx&#45;&gt;util/apiUrl.ts</title>
<path fill="none" stroke="#757575" d="M136.015,-485.131C145.349,-531.302 188.849,-716.029 302,-803.5 313.473,-812.369 328.085,-817.473 342.203,-820.362"/>
<polygon fill="#757575" stroke="#757575" points="341.897,-823.861 352.344,-822.097 343.077,-816.961 341.897,-823.861"/>
</g>
</g>
</svg>
