<svg width="24" height="24" viewBox="0 0 24 24" fill="none" xmlns="http://www.w3.org/2000/svg">
<path d="M11.1779 19.569C11.2697 19.7022 11.3924 19.8112 11.5356 19.8864C11.6788 19.9617 11.8382 20.001 11.9999 20.001C12.1617 20.001 12.321 19.9617 12.4642 19.8864C12.6074 19.8112 12.7302 19.7022 12.8219 19.569L21.8219 6.569C21.9261 6.41906 21.9872 6.24343 21.9986 6.06121C22.0099 5.87898 21.9712 5.69712 21.8864 5.53539C21.8017 5.37366 21.6743 5.23825 21.518 5.14386C21.3617 5.04947 21.1825 4.99971 20.9999 5H2.99994C2.81778 5.00075 2.63927 5.05115 2.48362 5.14576C2.32796 5.24038 2.20104 5.37564 2.11651 5.53699C2.03197 5.69835 1.99302 5.8797 2.00385 6.06153C2.01467 6.24337 2.07486 6.41881 2.17794 6.569L11.1779 19.569Z" fill="black"/>
</svg>
