<svg width="214" height="48" viewBox="0 0 214 48" fill="none" xmlns="http://www.w3.org/2000/svg">
<path d="M213.901 33.4599H204.996C204.283 33.4599 203.749 33.9854 203.571 34.5109C202.146 40.4671 199.652 47.8248 199.652 47.8248H189.144V43.9708H195.912C196.447 43.9708 196.981 43.6204 197.159 43.2701C198.05 41.6934 198.94 38.7153 199.831 35.0365C200.009 34.1606 199.296 33.2847 198.406 33.2847H173.828V29.781H200.009C200.721 29.781 201.255 29.2555 201.433 28.2044C201.433 28.2044 201.968 25.7518 202.146 24.1752C202.324 23.2993 201.612 22.4234 200.721 22.4234H179.171L183.979 0L187.363 0.70073L186.295 6.13139C186.117 7.0073 186.829 7.88321 187.72 7.88321H209.626V11.562H186.473C185.76 11.562 185.226 12.0876 185.048 12.7883L184.158 16.9927C183.979 17.8686 184.692 18.7445 185.582 18.7445H206.598C206.598 18.7445 205.352 26.2774 204.996 28.0292C204.817 28.9051 205.53 29.781 206.42 29.781H213.901V33.4599Z" fill="#009740"/>
<path d="M135.536 28.0292L132.864 29.2555L131.974 27.5037C131.796 26.9781 131.083 26.6277 130.549 26.6277L128.59 26.8029C128.056 26.8029 127.521 27.3285 127.521 28.0292V47.8248H124.493V28.9051C124.493 28.2044 123.781 27.6788 123.069 27.6788L116.479 28.5547L115.945 25.0511L118.082 24.7007C118.438 24.7007 118.794 24.5255 118.972 24.1752L123.425 18.0438C123.781 17.5182 123.781 16.9927 123.247 16.6423L115.588 8.93431L117.904 6.65693L119.15 7.88321C119.685 8.40876 120.575 8.40876 120.931 7.70803L126.453 0L129.124 1.57664L123.425 10.5109C123.069 11.0365 123.247 11.562 123.603 11.9124L125.206 13.4891C125.74 14.0146 126.631 14.0146 126.987 13.3139L131.261 7.35766L133.933 9.28467L124.85 22.073C124.315 22.9489 125.028 24 125.918 23.8248L128.234 23.4745C129.124 23.2993 129.658 22.4234 129.302 21.5474L128.768 20.4964L131.439 19.2701L135.536 28.0292ZM122.712 31.8832C122 36.2628 120.931 40.6423 119.507 45.3723L116.657 44.146C118.082 39.5912 119.15 35.3869 119.863 31.1825L122.712 31.8832ZM134.289 41.5182L131.439 42.3942L129.124 32.2336L132.152 31.3577L134.289 41.5182ZM158.867 16.6423L156.196 18.9197C152.634 15.2409 149.784 11.3869 146.578 6.30657C146.044 5.60584 144.975 5.60584 144.619 6.30657C141.769 11.0365 139.098 14.8905 135.536 18.9197L132.864 16.8175C137.673 11.2117 141.413 5.60584 144.263 0.175182H146.934C148.359 2.80292 150.14 5.60584 152.456 8.75912C154.771 12.0876 156.908 14.7153 158.867 16.6423ZM155.483 48H152.277V45.7226C152.277 45.0219 151.743 44.4963 151.031 44.4963H141.057C140.345 44.4963 139.81 45.0219 139.81 45.7226V48H136.604V27.6788H155.127V48H155.483ZM154.058 21.8978H137.851V18.219H154.058V21.8978ZM152.277 39.5912V32.4088C152.277 31.708 151.743 31.1825 151.031 31.1825H141.057C140.345 31.1825 139.81 31.708 139.81 32.4088V39.5912C139.81 40.292 140.345 40.8175 141.057 40.8175H151.031C151.743 40.8175 152.277 40.292 152.277 39.5912Z" fill="#009740"/>
<path d="M95.4625 27.1534V30.8322H83.3515C82.461 30.8322 81.7486 31.5329 81.7486 32.4089V42.5694C81.7486 43.4453 82.461 44.1461 83.3515 44.1461H99.7369V47.8249H59.4858V44.1461H76.7618C77.4742 44.1461 78.3647 43.4453 78.3647 42.5694V32.2337C78.3647 31.5329 77.6523 31.0074 76.7618 31.0074H65.007V27.3286H76.5837C77.2961 27.3286 78.1866 26.1023 78.1866 25.2264V16.9928C78.1866 16.1169 77.4742 15.4162 76.5837 15.4162H66.9661C66.2537 15.4162 65.7194 15.7665 65.5413 16.2921L61.8012 24.0001L58.7734 22.4235C60.0202 20.1461 61.6231 16.9928 63.226 12.7884C65.007 8.58405 66.0756 5.25558 66.9661 2.45266L70.172 3.50376C69.8158 4.90522 68.2129 9.45996 68.2129 9.45996C67.8566 10.5111 68.5691 11.5621 69.6377 11.5621H76.5837C77.2961 11.5621 78.0085 11.0366 78.1866 10.3359V0.175293H81.7486V10.1607C81.7486 11.0366 82.461 11.7373 83.3515 11.7373H97.5997V15.4162H83.3515C82.461 15.4162 81.7486 16.1169 81.7486 16.9928V25.0512C81.7486 25.9271 82.461 27.3286 83.3515 27.3286H95.4625V27.1534Z" fill="#009740"/>
<path d="M22.9753 21.8979L26.003 22.7739C23.3315 31.7082 19.2351 40.1169 19.2351 40.1169L16.3855 38.7155C16.2074 38.7155 20.3037 30.6571 22.9753 21.8979Z" fill="#009740"/>
<path d="M23.6876 0.175293L26.7153 1.22639L24.4 7.70814C24.0438 8.75923 24.2219 9.81032 25.8248 9.81032H42.2102V13.4892H33.8394C32.9489 13.4892 32.2365 14.0147 32.2365 14.8906V47.8249H24.2219V44.1461H27.2496C28.3182 44.1461 28.6744 43.4453 28.6744 42.5694V15.0658C28.6744 14.1899 27.962 13.4892 27.0715 13.4892H23.1533C22.4409 13.4892 21.9066 13.8395 21.7285 14.3651L18.3445 21.5475L15.4949 20.1461C15.3168 20.3213 20.3036 10.6862 23.6876 0.175293Z" fill="#009740"/>
<path d="M43.2789 39.7662L37.7577 21.3721L34.73 22.248L40.2511 40.6421L43.2789 39.7662Z" fill="#009740"/>
<path d="M14.7825 2.10205V18.0437H6.76788C6.05547 18.0437 5.34306 18.5692 5.16496 19.4451L4.63065 23.6495C4.45255 24.5254 5.16496 25.4013 6.05547 25.4013H14.7825C14.7825 25.4013 14.2482 33.2845 13.7139 36.9634C13.0014 41.5181 12.289 44.8466 11.5766 46.9488C11.5766 46.9488 11.2204 47.6495 11.2204 47.9999H2.67153V44.321H8.01459C8.727 44.321 9.0832 43.9707 9.26131 43.4451C9.97371 40.6422 10.6861 36.4378 11.2204 30.832C11.3985 29.9561 10.508 29.2553 9.61751 29.2553H5.16496C4.45255 29.2553 3.74014 29.7809 3.56204 30.6568L3.20584 32.759L0 32.2334L2.49343 14.3648H9.97371C10.8642 14.3648 11.3985 13.6641 11.3985 12.9634V7.35752C11.3985 6.48161 10.6861 5.95606 9.79561 5.95606H1.42482V2.10205H14.7825Z" fill="#009740"/>
<path d="M95.4625 27.1534V30.8322H83.3515C82.461 30.8322 81.7486 31.5329 81.7486 32.4089V42.5694C81.7486 43.4453 82.461 44.1461 83.3515 44.1461H99.7369V47.8249H59.4858V44.1461H76.7618C77.4742 44.1461 78.3647 43.4453 78.3647 42.5694V32.2337C78.3647 31.5329 77.6523 31.0074 76.7618 31.0074H65.007V27.3286H76.5837C77.2961 27.3286 78.1866 26.1023 78.1866 25.2264V16.9928C78.1866 16.1169 77.4742 15.4162 76.5837 15.4162H66.9661C66.2537 15.4162 65.7194 15.7665 65.5413 16.2921L61.8012 24.0001L58.7734 22.4235C60.0202 20.1461 61.6231 16.9928 63.226 12.7884C65.007 8.58405 66.0756 5.25558 66.9661 2.45266L70.172 3.50376C69.8158 4.90522 68.2129 9.45996 68.2129 9.45996C67.8566 10.5111 68.5691 11.5621 69.6377 11.5621H76.5837C77.2961 11.5621 78.0085 11.0366 78.1866 10.3359V0.175293H81.7486V10.1607C81.7486 11.0366 82.461 11.7373 83.3515 11.7373H97.5997V15.4162H83.3515C82.461 15.4162 81.7486 16.1169 81.7486 16.9928V25.0512C81.7486 25.9271 82.461 27.3286 83.3515 27.3286H95.4625V27.1534Z" fill="#009740"/>
</svg>
