<svg width="132" height="40" viewBox="0 0 132 40" fill="none" xmlns="http://www.w3.org/2000/svg">
<path d="M130.719 0H92.2876C91.7647 0 91.5033 0.261438 91.5033 0.784314V39.2157C91.5033 39.7386 91.7647 40 92.2876 40H130.719C131.242 40 131.503 39.7386 131.503 39.2157V0.784314C131.503 0.261438 131.242 0 130.719 0ZM126.797 30.8497C126.797 32.6797 125.229 34.2484 123.399 34.2484C121.569 34.2484 120 32.6797 120 30.8497V16.2092L100.915 35.2941C100.392 35.817 99.3464 36.3399 98.5621 36.3399C97.7778 36.3399 96.732 36.0784 96.2091 35.2941C94.902 33.9869 94.902 31.8954 96.2091 30.5882L115.294 11.5033H100.654C98.8235 11.5033 97.2549 9.93464 97.2549 8.10458C97.2549 6.27451 98.8235 4.70588 100.654 4.70588H123.399C125.229 4.70588 126.797 6.27451 126.797 8.10458V30.8497Z" fill="white"/>
<path d="M84.4449 35.0327H67.9743V26.6667H78.9547C79.2161 26.6667 79.2161 26.4052 79.2161 26.4052V21.9608C79.2161 21.6993 78.9547 21.6993 78.9547 21.6993H67.9743V13.3333H81.3076C81.5691 13.3333 81.5691 13.0719 81.5691 13.0719V8.62745C81.5691 8.36601 81.3076 8.36601 81.3076 8.36601H67.9743V0.522876C67.9743 0.261438 67.7129 0 67.7129 0H63.2684C63.007 0 63.007 0.261438 63.007 0.261438V8.10458H54.3795C54.9024 6.53595 55.4253 4.96732 55.6867 3.13726V2.87582H55.4253H50.9808C50.7194 2.87582 50.7194 2.87582 50.7194 3.13726C49.1508 9.93464 46.275 14.3791 44.9678 15.6863V15.9477C44.9678 15.9477 44.9678 16.2092 45.2292 16.2092L48.8893 18.8235C48.8893 18.8235 48.8893 18.8235 49.1508 18.8235H49.4122C49.6737 17.5163 50.9808 15.6863 52.288 13.3333H63.007V21.6993H52.0266C51.7652 21.6993 51.7652 21.9608 51.7652 21.9608V26.4052C51.7652 26.6667 52.0266 26.6667 52.0266 26.6667H63.007V35.0327H46.5364C46.275 35.0327 46.275 35.2941 46.275 35.2941V39.7386C46.275 40 46.5364 40 46.5364 40H84.4449C84.7063 40 84.7063 39.7386 84.7063 39.7386V35.2941C84.7063 35.0327 84.4449 35.0327 84.4449 35.0327Z" fill="white"/>
<path d="M39.2157 10.4576C39.4771 10.4576 39.4771 10.1961 39.4771 10.1961V5.75169C39.4771 5.49025 39.2157 5.49025 39.2157 5.49025H25.098C25.6209 3.92162 26.1438 2.353 26.4052 0.522931V0.261493H26.1438H21.6994C21.4379 5.49406e-05 21.4379 5.49406e-05 21.4379 0.261493C19.8693 7.05888 16.732 11.5033 15.6863 12.8105C15.6863 13.072 15.6863 13.072 15.6863 13.072C15.6863 13.072 15.6863 13.3334 15.9477 13.3334L19.6078 15.9478C19.6078 15.9478 19.6078 15.9478 19.8693 15.9478H20.1307C20.6536 14.6406 21.9608 12.8105 23.0065 10.4576H26.1438V32.6798C26.1438 33.987 25.098 35.0327 23.7909 35.0327H19.6078H19.3464V35.2942L20.6536 39.7386C20.6536 40.0001 20.915 40.0001 20.915 40.0001H25.6209C28.7582 40.0001 31.1111 37.3857 31.1111 34.5099V10.4576H39.2157Z" fill="white"/>
<path d="M14.6405 18.0393H5.75163L6.53595 14.1177H13.8562C14.1176 14.1177 14.1176 13.8563 14.1176 13.8563V1.30724C14.1176 1.04581 13.8562 1.04581 13.8562 1.04581H1.30719C1.04575 1.04581 1.04575 1.30724 1.04575 1.30724V5.49025C1.04575 5.75169 1.30719 5.75169 1.30719 5.75169H9.15033V9.67326H2.35294C2.0915 9.67326 2.0915 9.67326 2.0915 9.9347L0 22.2223V22.4837H0.261438H9.6732C9.6732 24.3138 9.41176 27.1896 9.41176 27.1896V27.451C9.15033 30.8497 8.88889 34.2484 4.96732 34.5099C3.66013 34.7713 2.35294 34.7713 2.0915 34.7713H1.83007C1.83007 34.7713 1.56863 34.7713 1.56863 35.0327V35.2942L2.87582 39.7386C2.87582 40.0001 3.13725 40.0001 3.13725 40.0001H3.92157C7.05882 40.0001 9.41177 39.2158 11.2418 37.6471C14.1176 35.0327 14.3791 31.1112 14.3791 28.2354V27.7125L14.902 18.5622C14.902 18.3007 14.902 18.3007 14.6405 18.0393C14.902 18.3007 14.6405 18.0393 14.6405 18.0393Z" fill="white"/>
<path d="M22.2225 30.8497L24.314 18.5621V18.3007H24.0525H19.6081C19.3466 18.0392 19.3466 18.3007 19.3466 18.3007L17.2551 30.5883V30.8497H17.5166H21.961C22.2225 31.1111 22.2225 31.1111 22.2225 30.8497Z" fill="white"/>
<path d="M38.4309 18.3007C38.4309 18.0393 38.1695 18.0393 38.1695 18.0393H33.725H33.4636V18.3007L35.5551 30.5883C35.5551 30.8497 35.8165 30.8497 35.8165 30.8497H40.261H40.5224V30.5883L38.4309 18.3007Z" fill="white"/>
</svg>
